<svg xmlns="http://www.w3.org/2000/svg" width="16.79" height="16.79" viewBox="0 0 16.79 16.79">
  <path id="sport" d="M8.395,0A8.395,8.395,0,1,0,16.79,8.395,8.4,8.4,0,0,0,8.395,0Zm.3,2.42,2.918-1.167a7.853,7.853,0,0,1,.959.517l.008,0a7.88,7.88,0,0,1,.864.633l.024.02q.184.157.358.324l.045.043q.182.178.353.367l.028.033c.1.112.2.228.289.346l.067.084c.1.131.2.264.291.4L14.315,6.5l-2.862.954L8.7,5.247ZM2.184,3.626l.066-.084q.138-.175.286-.342l.031-.036q.17-.189.352-.367c.014-.014.028-.028.042-.041q.172-.166.355-.322l.028-.024a7.911,7.911,0,0,1,.856-.63l.011-.007a7.861,7.861,0,0,1,.953-.516L8.1,2.42V5.247L5.338,7.452,2.475,6.5,1.894,4.027c.093-.137.19-.27.29-.4Zm-.337,9.063q-.123-.188-.236-.383l-.018-.031q-.112-.194-.212-.4l0,0a7.8,7.8,0,0,1-.369-.868v0c-.05-.14-.1-.283-.137-.427l-.015-.053q-.058-.2-.1-.411c0-.014-.006-.026-.009-.04A7.788,7.788,0,0,1,.6,9.126l1.708-2.05,2.843.947.825,3.3-1.356,1.8ZM10.258,16c-.14.035-.284.065-.427.092l-.061.011c-.122.022-.246.041-.37.056l-.1.013c-.115.013-.231.024-.348.032l-.109.008c-.149.009-.3.014-.45.014s-.276,0-.413-.011c-.017,0-.032,0-.049,0q-.183-.01-.364-.028l-.014,0a7.973,7.973,0,0,1-.789-.126L5.111,13.467l1.334-1.779h3.9L11.7,13.479Zm5.789-5.93-.009.04q-.047.207-.1.411l-.015.053c-.042.144-.087.287-.137.427v0a7.77,7.77,0,0,1-.369.868l0,0q-.1.2-.212.4l-.018.031q-.112.2-.236.383l-2.761.435-1.365-1.8.825-3.3,2.843-.947L16.2,9.126a7.77,7.77,0,0,1-.148.948Zm0,0" fill="rgba(0,0,0,0.5)"/>
</svg>
