<svg xmlns="http://www.w3.org/2000/svg" width="124.296" height="45" viewBox="0 0 124.296 45">
  <g id="Group_8661" data-name="Group 8661" transform="translate(-261.001 -524.999)">
    <path id="Path_143" data-name="Path 143" d="M119.692,45H4.6C2.026,45,0,42.525,0,39.375V5.625C0,2.475,2.026,0,4.6,0H119.692c2.578,0,4.6,2.475,4.6,5.625v33.75C124.3,42.525,122.27,45,119.692,45Z" transform="translate(261.001 524.999)" fill="#fff"/>
    <path id="Path_133" data-name="Path 133" d="M69.242,38.994a6.032,6.032,0,0,1,2.874-5.062A6.181,6.181,0,0,0,67.248,31.3c-2.048-.215-4.034,1.225-5.077,1.225-1.064,0-2.67-1.2-4.4-1.169a6.481,6.481,0,0,0-5.455,3.326c-2.359,4.083-.6,10.082,1.66,13.382,1.13,1.617,2.451,3.421,4.181,3.357,1.692-.069,2.323-1.077,4.365-1.077,2.023,0,2.616,1.077,4.379,1.037,1.815-.028,2.958-1.623,4.049-3.254a13.338,13.338,0,0,0,1.852-3.77,5.837,5.837,0,0,1-3.56-5.364ZM65.91,29.13a5.937,5.937,0,0,0,1.359-4.255A6.051,6.051,0,0,0,63.358,26.9,5.65,5.65,0,0,0,61.963,31,5,5,0,0,0,65.91,29.13Z" transform="translate(219.805 509.124)"/>
    <g id="Group_1058" data-name="Group 1058" transform="translate(-606 114.999)">
      <text id="Download_for" data-name="Download for" transform="translate(907 427)" fill="#13143f" font-size="8" font-family="OpenSans-Regular, Open Sans"><tspan x="0" y="0">DOWNLOAD FOR</tspan></text>
      <text id="IOS_User" data-name="IOS User" transform="translate(907 443)" fill="#13143f" font-size="13" font-family="OpenSans-Bold, Open Sans" font-weight="700"><tspan x="0" y="0">IOS USER</tspan></text>
    </g>
  </g>
</svg>
