<svg xmlns="http://www.w3.org/2000/svg" width="78.782" height="89.617" viewBox="0 0 78.782 89.617">
  <g id="Group_8643" data-name="Group 8643" transform="translate(-9165 -9379.048)">
    <g id="Group_8642" data-name="Group 8642" transform="translate(6)">
      <path id="Path_5066" data-name="Path 5066" d="M126.078,40.021a1.355,1.355,0,0,0-1.242-.743l-2.42.044a15.447,15.447,0,0,0-20.611-10.447,1.368,1.368,0,0,0,1,2.547,12.712,12.712,0,0,1,16.774,7.951l-2.259.041a1.369,1.369,0,0,0-.987,2.29l4.078,4.483a1.369,1.369,0,0,0,1.012.448l.068,0a1.369,1.369,0,0,0,1.031-.55l3.436-4.619a1.37,1.37,0,0,0,.119-1.442Z" transform="translate(9085.926 9357.257)" fill="#30b847"/>
      <g id="Group_8640" data-name="Group 8640" transform="translate(9159 9379.048)">
        <g id="Group_8623" data-name="Group 8623" transform="translate(5.483 0)">
          <path id="Path_5029" data-name="Path 5029" d="M316.323,184.388c-.132.106-.263.207-.4.3-.112.082-.224.158-.34.23a8.285,8.285,0,0,1-.775.449c-.125.067-.25.127-.377.186a8.783,8.783,0,0,1-1.631.556c-.147.04-.3.071-.446.1a8.845,8.845,0,0,1-1.073.128,4.879,4.879,0,0,1-.511.017,7.722,7.722,0,0,1-1.2-.072c-.207-.025-.408-.059-.6-.1a8.6,8.6,0,0,1-1.384-.394,7.7,7.7,0,0,1-.8-.345,8.857,8.857,0,0,1-3.027-2.422l-1.272-1.582,13.934-11.2,1.271,1.582a8.875,8.875,0,0,1,1.784,3.79,7.182,7.182,0,0,1,.13.815,8.447,8.447,0,0,1,.04,1.464c-.007.2-.026.394-.049.591a9.049,9.049,0,0,1-.447,1.922c-.052.145-.107.294-.168.438a8.764,8.764,0,0,1-.865,1.6c-.08.117-.16.233-.247.346a8.381,8.381,0,0,1-.9,1.018c-.095.1-.194.191-.3.283S316.442,184.293,316.323,184.388Z" transform="translate(-300.516 -166.903)" fill="#c57c00"/>
          <g id="Group_8622" data-name="Group 8622" transform="translate(4.692 6.955)">
            <path id="Path_5030" data-name="Path 5030" d="M358.938,231.224c-.112.082-.224.158-.34.23l-1.564-1.945.319-.257Z" transform="translate(-348.221 -220.391)" fill="#9d6500"/>
            <path id="Path_5031" data-name="Path 5031" d="M352.193,232.609c-.125.067-.25.127-.377.186l-1.921-2.391.319-.257Z" transform="translate(-342.591 -221.097)" fill="#9d6500"/>
            <path id="Path_5032" data-name="Path 5032" d="M342.549,235.927c-.147.04-.3.071-.446.1l-1.892-2.354.319-.257Z" transform="translate(-334.955 -223.674)" fill="#9d6500"/>
            <path id="Path_5033" data-name="Path 5033" d="M334.853,236.362a4.871,4.871,0,0,1-.511.017l-1.964-2.444.319-.256Z" transform="translate(-328.777 -223.882)" fill="#9d6500"/>
            <path id="Path_5034" data-name="Path 5034" d="M326.9,236.248c-.207-.025-.408-.059-.6-.1l-1.839-2.288.319-.256Z" transform="translate(-322.531 -223.823)" fill="#9d6500"/>
            <path id="Path_5035" data-name="Path 5035" d="M317.732,234.212a7.692,7.692,0,0,1-.8-.345l-1.579-1.964.319-.256Z" transform="translate(-315.352 -222.28)" fill="#9d6500"/>
            <path id="Path_5036" data-name="Path 5036" d="M363.264,226.942l-1.693-2.106.319-.256,1.671,2.08C363.467,226.758,363.368,226.85,363.264,226.942Z" transform="translate(-351.798 -216.707)" fill="#9d6500"/>
            <path id="Path_5037" data-name="Path 5037" d="M368.823,220.662l-1.721-2.14.319-.256,1.649,2.051C368.99,220.432,368.909,220.548,368.823,220.662Z" transform="translate(-356.16 -211.727)" fill="#9d6500"/>
            <path id="Path_5038" data-name="Path 5038" d="M374.065,211.438l-1.725-2.145.316-.254L374.233,211C374.181,211.145,374.126,211.294,374.065,211.438Z" transform="translate(-360.29 -204.452)" fill="#9d6500"/>
            <path id="Path_5039" data-name="Path 5039" d="M376.247,199.364l-1.92-2.388.319-.256,1.65,2.053C376.29,198.969,376.27,199.166,376.247,199.364Z" transform="translate(-361.857 -194.737)" fill="#9d6500"/>
            <path id="Path_5040" data-name="Path 5040" d="M376.513,189.916l-1.86-2.314.319-.256,1.411,1.756A7.182,7.182,0,0,1,376.513,189.916Z" transform="translate(-362.114 -187.345)" fill="#9d6500"/>
          </g>
          <path id="Path_5041" data-name="Path 5041" d="M307.7,170.354a8.937,8.937,0,1,1,1.367-12.565A8.937,8.937,0,0,1,307.7,170.354Z" transform="translate(-293.163 -154.451)" fill="#ffc400"/>
          <path id="Path_5042" data-name="Path 5042" d="M312.414,174.835a7.418,7.418,0,1,1,1.135-10.43A7.418,7.418,0,0,1,312.414,174.835Z" transform="translate(-298.829 -160.115)" fill="#ffac00"/>
          <path id="Path_5043" data-name="Path 5043" d="M302.856,173.8A7.417,7.417,0,0,1,309,161.745a7.417,7.417,0,1,0-1.6,14.722A7.39,7.39,0,0,1,302.856,173.8Z" transform="translate(-298.829 -160.121)" fill="#bb6a00"/>
        </g>
        <g id="Group_8625" data-name="Group 8625" transform="translate(0 5.695)">
          <path id="Path_5044" data-name="Path 5044" d="M307.882,177.731c0,.169,0,.335-.014.5-.007.139-.017.274-.034.409a8.32,8.32,0,0,1-.135.886c-.027.139-.057.274-.091.41a8.789,8.789,0,0,1-.588,1.62c-.061.139-.132.277-.2.409a8.882,8.882,0,0,1-.572.917,4.966,4.966,0,0,1-.308.409,7.688,7.688,0,0,1-.8.886c-.149.145-.3.281-.457.409a8.548,8.548,0,0,1-1.174.832,7.59,7.59,0,0,1-.771.409,8.858,8.858,0,0,1-3.784.842h-2.029V168.792h2.029a8.877,8.877,0,0,1,4.072.984,7.193,7.193,0,0,1,.717.409,8.459,8.459,0,0,1,1.167.886c.149.128.291.267.429.409a9.018,9.018,0,0,1,1.218,1.552c.081.132.162.267.236.406a8.771,8.771,0,0,1,.707,1.677c.04.135.081.27.115.409a8.371,8.371,0,0,1,.23,1.339c.017.135.027.271.034.409S307.882,177.579,307.882,177.731Z" transform="translate(-287.979 -168.792)" fill="#c57c00"/>
          <g id="Group_8624" data-name="Group 8624" transform="translate(12.233 0.984)">
            <path id="Path_5045" data-name="Path 5045" d="M339.274,213.434c-.007.139-.017.274-.034.409h-2.5v-.409Z" transform="translate(-331.617 -204.979)" fill="#9d6500"/>
            <path id="Path_5046" data-name="Path 5046" d="M336.128,219.558c-.027.139-.057.274-.091.41h-3.067v-.41Z" transform="translate(-328.64 -209.808)" fill="#9d6500"/>
            <path id="Path_5047" data-name="Path 5047" d="M332.673,229.156c-.061.139-.132.277-.2.409h-3.02v-.409Z" transform="translate(-325.865 -217.377)" fill="#9d6500"/>
            <path id="Path_5048" data-name="Path 5048" d="M328.19,235.426a4.977,4.977,0,0,1-.308.409h-3.135v-.409Z" transform="translate(-322.157 -222.321)" fill="#9d6500"/>
            <path id="Path_5049" data-name="Path 5049" d="M323.118,241.553c-.149.145-.3.281-.457.409h-2.935v-.409Z" transform="translate(-318.197 -227.152)" fill="#9d6500"/>
            <path id="Path_5050" data-name="Path 5050" d="M315.786,247.423a7.6,7.6,0,0,1-.771.409H312.5v-.409Z" transform="translate(-312.496 -231.781)" fill="#9d6500"/>
            <path id="Path_5051" data-name="Path 5051" d="M338.646,207.38h-2.7v-.409h2.668C338.63,207.106,338.639,207.242,338.646,207.38Z" transform="translate(-330.986 -199.883)" fill="#9d6500"/>
            <path id="Path_5052" data-name="Path 5052" d="M337.234,199.112h-2.746V198.7h2.631C337.16,198.838,337.2,198.973,337.234,199.112Z" transform="translate(-329.838 -193.363)" fill="#9d6500"/>
            <path id="Path_5053" data-name="Path 5053" d="M333.323,189.256H330.57v-.406h2.516C333.167,188.982,333.249,189.117,333.323,189.256Z" transform="translate(-326.748 -185.593)" fill="#9d6500"/>
            <path id="Path_5054" data-name="Path 5054" d="M325.285,179.983h-3.064v-.409h2.635C325,179.7,325.147,179.841,325.285,179.983Z" transform="translate(-320.165 -178.278)" fill="#9d6500"/>
            <path id="Path_5055" data-name="Path 5055" d="M318.089,173.856H315.12v-.409h2.253A7.192,7.192,0,0,1,318.089,173.856Z" transform="translate(-314.565 -173.447)" fill="#9d6500"/>
          </g>
          <path id="Path_5056" data-name="Path 5056" d="M272.517,177.734a8.938,8.938,0,1,1-8.937-8.937A8.937,8.937,0,0,1,272.517,177.734Z" transform="translate(-254.642 -168.796)" fill="#ffc400"/>
          <path id="Path_5057" data-name="Path 5057" d="M276.663,183.4a7.419,7.419,0,1,1-7.418-7.418A7.418,7.418,0,0,1,276.663,183.4Z" transform="translate(-260.307 -174.46)" fill="#ffac00"/>
          <path id="Path_5058" data-name="Path 5058" d="M269.864,197.184a7.417,7.417,0,0,1-5.546-12.343,7.417,7.417,0,1,0,10.473,10.47A7.388,7.388,0,0,1,269.864,197.184Z" transform="translate(-260.307 -181.448)" fill="#bb6a00"/>
        </g>
      </g>
      <g id="Group_8625-2" data-name="Group 8625" transform="translate(9197.082 9406.994)">
        <path id="Path_5044-2" data-name="Path 5044" d="M309.436,179c0,.193,0,.382-.016.572-.007.158-.019.313-.039.467a9.521,9.521,0,0,1-.154,1.011c-.031.159-.065.313-.1.468a10.032,10.032,0,0,1-.672,1.849c-.07.158-.151.316-.231.467a10.146,10.146,0,0,1-.653,1.046,5.672,5.672,0,0,1-.351.467,8.781,8.781,0,0,1-.919,1.012c-.17.166-.344.321-.521.467a9.759,9.759,0,0,1-1.34.95,8.675,8.675,0,0,1-.88.467,10.114,10.114,0,0,1-4.321.962h-2.317V168.792h2.317a10.135,10.135,0,0,1,4.649,1.124,8.21,8.21,0,0,1,.818.467,9.657,9.657,0,0,1,1.332,1.012c.17.147.332.3.49.467a10.3,10.3,0,0,1,1.39,1.772c.092.151.185.305.27.464a10.008,10.008,0,0,1,.807,1.915c.046.154.092.309.131.467a9.56,9.56,0,0,1,.262,1.529c.02.154.031.309.039.467C309.432,178.65,309.436,178.824,309.436,179Z" transform="translate(-286.712 -168.792)" fill="#c57c00"/>
        <g id="Group_8624-2" data-name="Group 8624" transform="translate(13.966 1.124)">
          <path id="Path_5045-2" data-name="Path 5045" d="M339.632,213.434c-.007.158-.019.313-.039.467h-2.849v-.467Z" transform="translate(-330.89 -203.781)" fill="#9d6500"/>
          <path id="Path_5046-2" data-name="Path 5046" d="M336.575,219.558c-.031.159-.065.313-.1.468h-3.5v-.468Z" transform="translate(-328.027 -208.426)" fill="#9d6500"/>
          <path id="Path_5047-2" data-name="Path 5047" d="M333.13,229.156c-.07.158-.151.316-.231.467H329.45v-.467Z" transform="translate(-325.357 -215.707)" fill="#9d6500"/>
          <path id="Path_5048-2" data-name="Path 5048" d="M328.678,235.426a5.677,5.677,0,0,1-.351.467h-3.58v-.467Z" transform="translate(-321.79 -220.464)" fill="#9d6500"/>
          <path id="Path_5049-2" data-name="Path 5049" d="M323.6,241.553c-.17.166-.344.321-.521.467h-3.351v-.467Z" transform="translate(-317.981 -225.112)" fill="#9d6500"/>
          <path id="Path_5050-2" data-name="Path 5050" d="M316.253,247.423a8.678,8.678,0,0,1-.88.467H312.5v-.467Z" transform="translate(-312.496 -229.565)" fill="#9d6500"/>
          <path id="Path_5051-2" data-name="Path 5051" d="M339.029,207.438h-3.085v-.467h3.046C339.01,207.126,339.021,207.28,339.029,207.438Z" transform="translate(-330.284 -198.878)" fill="#9d6500"/>
          <path id="Path_5052-2" data-name="Path 5052" d="M337.623,199.17h-3.135V198.7h3C337.538,198.858,337.585,199.012,337.623,199.17Z" transform="translate(-329.179 -192.606)" fill="#9d6500"/>
          <path id="Path_5053-2" data-name="Path 5053" d="M333.713,189.314H330.57v-.464h2.873C333.535,189,333.628,189.155,333.713,189.314Z" transform="translate(-326.207 -185.132)" fill="#9d6500"/>
          <path id="Path_5054-2" data-name="Path 5054" d="M325.719,180.041h-3.5v-.467h3.008C325.4,179.721,325.561,179.879,325.719,180.041Z" transform="translate(-319.873 -178.095)" fill="#9d6500"/>
          <path id="Path_5055-2" data-name="Path 5055" d="M318.51,173.914h-3.39v-.467h2.572A8.216,8.216,0,0,1,318.51,173.914Z" transform="translate(-314.487 -173.447)" fill="#9d6500"/>
        </g>
        <path id="Path_5056-2" data-name="Path 5056" d="M275.05,179a10.2,10.2,0,1,1-10.2-10.2A10.2,10.2,0,0,1,275.05,179Z" transform="translate(-254.642 -168.796)" fill="#ffc400"/>
        <path id="Path_5057-2" data-name="Path 5057" d="M278.766,184.45a8.47,8.47,0,1,1-8.47-8.47A8.469,8.469,0,0,1,278.766,184.45Z" transform="translate(-260.092 -174.245)" fill="#ffac00"/>
        <path id="Path_5058-2" data-name="Path 5058" d="M271,198.933a8.468,8.468,0,0,1-6.332-14.092,8.468,8.468,0,1,0,11.957,11.953A8.435,8.435,0,0,1,271,198.933Z" transform="translate(-260.092 -180.967)" fill="#bb6a00"/>
      </g>
    </g>
    <g id="Group_8641" data-name="Group 8641" transform="translate(9186 9424.768)">
      <path id="Path_5059" data-name="Path 5059" d="M117.361,183.654v26.587a1.264,1.264,0,0,0,1.264,1.264h49.613a1.264,1.264,0,0,0,1.264-1.264V183.654Z" transform="translate(-114.33 -168.495)" fill="#67d270"/>
      <path id="Path_5061" data-name="Path 5061" d="M161.682,170.384h12.386v33.739H161.682Z" transform="translate(-138.984 -161.113)" fill="#e0ebfc"/>
      <path id="Path_5062" data-name="Path 5062" d="M167.275,165.764H113.8a1.264,1.264,0,0,1-1.264-1.264V152.757a1.264,1.264,0,0,1,1.264-1.264h53.48a1.264,1.264,0,0,1,1.264,1.264V164.5A1.264,1.264,0,0,1,167.275,165.764Z" transform="translate(-111.643 -150.605)" fill="#67d270"/>
      <path id="Path_5063" data-name="Path 5063" d="M161.682,151.493h12.386v14.271H161.682Z" transform="translate(-138.984 -150.605)" fill="#e0ebfc"/>
      <path id="Path_5069" data-name="Path 5069" d="M167.125,211.279H117.512a2.154,2.154,0,0,1-2.151-2.152V182.541a.888.888,0,0,1,.887-.887h52.14a.888.888,0,0,1,.887.887v26.587a2.153,2.153,0,0,1-2.151,2.152Zm-49.989-27.851v25.7a.377.377,0,0,0,.376.377h49.613a.377.377,0,0,0,.377-.377v-25.7Z" transform="translate(-113.218 -167.382)" fill="#30b847"/>
      <path id="Path_5070" data-name="Path 5070" d="M166.162,165.538h-53.48a2.154,2.154,0,0,1-2.151-2.152V151.644a2.154,2.154,0,0,1,2.151-2.152h53.48a2.154,2.154,0,0,1,2.151,2.152v11.743A2.153,2.153,0,0,1,166.162,165.538Zm-53.48-14.271a.377.377,0,0,0-.376.377v11.743a.377.377,0,0,0,.376.377h53.48a.377.377,0,0,0,.376-.377V151.644a.377.377,0,0,0-.376-.377Z" transform="translate(-110.531 -149.492)" fill="#30b847"/>
    </g>
  </g>
</svg>
