<svg xmlns="http://www.w3.org/2000/svg" width="213.479" height="191.972" viewBox="0 0 213.479 191.972">
  <g id="Group_8718" data-name="Group 8718" transform="translate(0 0)">
    <path id="Path_4851" data-name="Path 4851" d="M942.624,775.728v.21c0,.055,0,.113,0,.168a13,13,0,0,1-2.852,7.888c-.091.117-.186.23-.284.343-.146.173-.3.339-.452.5-.013.013-.027.029-.042.042l-.007.007-.053.055q-.409.422-.857.809c-.06.051-.122.1-.186.155a13.026,13.026,0,0,1-8.227,3c-.022,0-.047,0-.069,0h-.077c-.022,0-.044,0-.067,0-.078,0-.153,0-.23,0a13.012,13.012,0,0,1-8.178-3.144c-.062-.051-.124-.1-.184-.16-.237-.208-.465-.428-.685-.654l-.053-.055-.007-.007c-.016-.013-.029-.029-.042-.042-.186-.2-.366-.4-.538-.6q-.143-.17-.279-.346a12.987,12.987,0,0,1-2.776-7.792c0-.053,0-.109,0-.164v-.206c0-.024,0-.049,0-.073a13,13,0,0,1,2.727-7.826q.136-.176.279-.346c.175-.213.359-.419.547-.62.013-.016.027-.029.042-.044,0,0,0,0,0-.007.018-.018.035-.038.055-.055q.369-.382.769-.736c.06-.055.122-.109.184-.16a13.024,13.024,0,0,1,8.353-3.109c.022,0,.046,0,.069,0h.144a13.029,13.029,0,0,1,8.2,2.969l.186.157c.323.275.634.567.928.873l.053.055,0,0c.016.013.031.031.044.044.164.173.321.352.474.534.1.113.19.226.284.343a13,13,0,0,1,2.8,7.923A.611.611,0,0,1,942.624,775.728Z" transform="translate(-739.612 -597.477)" fill="#ff9f00"/>
    <rect id="Rectangle_3213" data-name="Rectangle 3213" width="0.443" height="26.145" transform="translate(189.605 165.336)" fill="#fff"/>
    <rect id="Rectangle_3214" data-name="Rectangle 3214" width="26.258" height="0.443" transform="translate(176.754 178.187)" fill="#fff"/>
    <path id="Path_4852" data-name="Path 4852" d="M933.485,792.291a10.176,10.176,0,0,0-4.416-8.171q-.143.169-.279.346a9.74,9.74,0,0,1,4.254,7.826c0,.073,0,.146,0,.222s0,.148,0,.222a9.75,9.75,0,0,1-4.2,7.792q.136.176.279.346a10.183,10.183,0,0,0,4.365-8.138c0-.073,0-.148,0-.222S933.489,792.364,933.485,792.291Z" transform="translate(-749.202 -614.104)" fill="#fff"/>
    <path id="Path_4853" data-name="Path 4853" d="M1000.445,792.4c0-.073,0-.146,0-.222s0-.148,0-.222a9.749,9.749,0,0,1,4.4-7.923c-.093-.117-.186-.23-.284-.343a10.184,10.184,0,0,0-4.553,8.267c0,.073,0,.148,0,.222s0,.148,0,.222a10.181,10.181,0,0,0,4.5,8.231c.1-.113.193-.226.283-.343A9.745,9.745,0,0,1,1000.445,792.4Z" transform="translate(-804.634 -613.769)" fill="#fff"/>
    <rect id="Rectangle_3215" data-name="Rectangle 3215" width="213.479" height="0.496" transform="translate(0 191.357)" fill="#30b847"/>
    <path id="Path_4854" data-name="Path 4854" d="M378.832,108.918a91.85,91.85,0,0,1-25.319,63.488c-.111.117-.224.235-.337.352a92.171,92.171,0,0,1-132.984.051c-.113-.117-.226-.235-.337-.352a92.17,92.17,0,0,1-.3-126.693c.108-.12.221-.237.334-.355a92.172,92.172,0,0,1,133.484-.051c.113.117.226.235.335.354A91.841,91.841,0,0,1,378.832,108.918Z" transform="translate(-177.597 -16.782)" fill="#30b847"/>
    <rect id="Rectangle_3216" data-name="Rectangle 3216" width="184.343" height="0.443" transform="translate(16.892 91.95)" fill="#fff"/>
    <rect id="Rectangle_3217" data-name="Rectangle 3217" width="0.443" height="184.343" transform="translate(108.842 0)" fill="#fff"/>
    <path id="Path_4855" data-name="Path 4855" d="M334.426,179.152a79.129,79.129,0,0,0-26.452-33.165c-.113.117-.226.235-.334.355a78.143,78.143,0,0,1,.3,126.693c.111.117.224.235.337.352a78.785,78.785,0,0,0,26.153-94.235Z" transform="translate(-265.677 -117.36)" fill="#fff"/>
    <path id="Path_4856" data-name="Path 4856" d="M765.038,209.561a78.157,78.157,0,0,1,32.488-63.449c-.109-.12-.222-.237-.335-.354a78.725,78.725,0,0,0-.2,127.4c.113-.117.226-.235.337-.352A78.161,78.161,0,0,1,765.038,209.561Z" transform="translate(-621.41 -117.181)" fill="#fff"/>
    <path id="Path_4857" data-name="Path 4857" d="M388.8,704.422l-.614,12.279,6.446,1.228,1.842-11.665Z" transform="translate(-302.176 -548.346)" fill="#9d616a"/>
    <path id="Path_4858" data-name="Path 4858" d="M535.046,720.277l1.535,10.13h5.833l-1.228-10.744Z" transform="translate(-416.498 -560.21)" fill="#9d616a"/>
    <path id="Path_4859" data-name="Path 4859" d="M506.119,614.521l-1.228,14.121-1.228,11.972a10.462,10.462,0,0,1,8.9.921s2.763-.614,2.149-12.586l2.763-12.586Z" transform="translate(-418.269 -482.082)" fill="#efefef"/>
    <path id="Path_4860" data-name="Path 4860" d="M626.972,628.832s1.842,11.051,2.763,11.972c0,0,1.52,9.883,2.259,12.381a2.227,2.227,0,0,0,.2.512c.614.921,7.367,3.07,7.674-.614s1.228-9.823-1.842-14.428l-1.842-11.665Z" transform="translate(-514.257 -491.789)" fill="#efefef"/>
    <path id="Path_4861" data-name="Path 4861" d="M536.017,492.636c-.307,3.377-17.191,2.763-20.261,2.763a2.639,2.639,0,0,1-2.837-1.827,43.882,43.882,0,0,1-1.842-8.684,16.006,16.006,0,0,1-2.529,7.539c-1.065,1.437-2.827,1.151-4.764.823-3.217-.546-9.612-2.536-11.358-2.149-2.763.614-6.087.675-6.14,0a7.91,7.91,0,0,1,.006-1.108c.405-6.348,6.287-23.558,6.287-24.832,0-1.535,2.763-7.981,2.763-7.981l28.242-3.377s11.186,30.176,12.724,37.6C536.441,492.049,536.042,492.369,536.017,492.636Z" transform="translate(-404.73 -356.974)" fill="#efefef"/>
    <path id="Path_4862" data-name="Path 4862" d="M511.645,769.846l-7.981-1.535.767,12.74,6.293,4.451S510.109,773.223,511.645,769.846Z" transform="translate(-418.269 -601.798)" fill="#efefef"/>
    <path id="Path_4863" data-name="Path 4863" d="M660.664,771.082s-3.991,2.456-7.367,0l2.763,11.358,4.6-.614S662.813,775.073,660.664,771.082Z" transform="translate(-534.748 -603.955)" fill="#efefef"/>
    <path id="Path_4864" data-name="Path 4864" d="M668.056,814.032s-6.447.307-6.447.921v10.13c0,.921,1.228,2.149.921,2.763s1.842,2.149,6.753,1.228,3.07-3.991,3.07-3.991S667.442,816.488,668.056,814.032Z" transform="translate(-541.22 -637.389)" fill="#ff9f00"/>
    <path id="Path_4865" data-name="Path 4865" d="M489.918,814.725s7.367.153,7.367.767v10.13c0,.921-1.228,2.149-.921,2.763s-1.842,2.149-6.754,1.228-3.07-3.991-3.07-3.991S490.532,817.181,489.918,814.725Z" transform="translate(-404.677 -637.928)" fill="#ff9f00"/>
    <path id="Path_4866" data-name="Path 4866" d="M630.107,623.9c-.307,3.377-18.112,3.684-21.181,3.684-.97,0-1.756-1.225-2.376-2.9,3.294-.654,17.461-3.322,23.389-2.164A5.64,5.64,0,0,1,630.107,623.9Z" transform="translate(-498.359 -488.082)" fill="#ff9f00"/>
    <path id="Path_4867" data-name="Path 4867" d="M508.548,619.373a4.446,4.446,0,0,1-4.457,2.051c-3.217-.546-9.919-1.922-11.665-1.535-2.763.614-6.087-1.167-6.14-1.842a7.9,7.9,0,0,1,.006-1.108C492.754,616.763,504.2,616.84,508.548,619.373Z" transform="translate(-404.729 -483.92)" fill="#ff9f00"/>
    <path id="Path_4868" data-name="Path 4868" d="M322.082,285.123s-5.526-1.842-10.437,3.684l-.921,1.842s-7.061,2.149-9.209,3.684a37.833,37.833,0,0,0-14.428,0l-7.981-1.842s-15.349-10.744-16.884-3.991,14.428,9.209,14.428,9.209l13.2,3.684s10.13,2.456,14.121.614c0,0,11.358-.614,13.507-4.912l4.6,2.149Z" transform="translate(-230.242 -225.438)" fill="#9d616a"/>
    <path id="Path_4869" data-name="Path 4869" d="M598.168,259.91s11.358-1.228,15.656,4.6l8.9,2.456s9.823-1.842,13.507-.921l7.981-2.149s7.674-12.279,11.972-8.9-10.13,14.121-10.13,14.121l-19.34,6.447s-15.042,1.228-18.112-4.3l-3.377,7.675-12.893-3.07Z" transform="translate(-487.294 -201.761)" fill="#9d616a"/>
    <circle id="Ellipse_397" data-name="Ellipse 397" cx="8.288" cy="8.288" r="8.288" transform="translate(91.841 40.038)" fill="#9d616a"/>
    <path id="Path_4870" data-name="Path 4870" d="M550.77,249.573v6.754l3.07,10.744,9.209-10.744s-2.456-7.367-2.456-8.6S550.77,249.573,550.77,249.573Z" transform="translate(-454.938 -196.335)" fill="#9d616a"/>
    <path id="Path_4871" data-name="Path 4871" d="M550.455,316.164a1.532,1.532,0,0,1-1.547,1.209,50.121,50.121,0,0,0-10.578,1.707c-4.6,1.535-18.419,1.535-18.419,1.535l-.9-27.806.436-2.124c-.307-2.456,2.149-12.279,2.149-12.279l1.793-1.323,1.679-.362.519.457c0,4.089,3.991,7.981,3.991,7.981,5.833-2.763,8.288-8.9,8.288-8.9L539.6,276l1.808.2,1.636.184-.568.482-.307.614c-.018.037.015-.037,0,0-4.47,9.483.927,13.771,4.3,15.656,1.4.786,1.535,1.535,1.535,1.535s1.262-.378,1.228.921c-.1,4.2-.866,13.691.307,16.27C551.069,315.243,550.455,316.164,550.455,316.164Z" transform="translate(-430.218 -218.568)" fill="#efefef"/>
    <path id="Path_4872" data-name="Path 4872" d="M530.68,185.611a20.663,20.663,0,0,1,.7-2.009c.35-.8,0-3.214.35-3.214h1.4l1.75-1.607,1.05.8,1.4-.8,1.75.8,1.75-.8,2.8,2.009.7-.4.7,1.205h.35l1.4,2.009h.7v2.009h.7v5.222l-.921,3.6-.307-1.768a.112.112,0,0,0-.206-.06l-.666,1.037-.427-1.636a10.933,10.933,0,0,0-4.088-6.116c-2.59-1.879-6.333-2.774-10.183,2.529Z" transform="translate(-439.3 -142.888)" fill="#2f2e41"/>
    <path id="Path_4873" data-name="Path 4873" d="M523.2,280.88c-.583,3.546-2.345,13.35-4.377,15.726l-.025-.743c-.307-2.456,1.842-14.428,1.842-14.428Z" transform="translate(-430.027 -222.365)" fill="#ff9f00"/>
    <path id="Path_4874" data-name="Path 4874" d="M560.862,275.151c-1.541,2.91-5.955,10.422-10.17,9.925-4.067-.479-4.405-6.551-4.356-9.206l.979-.212c0,4.089,3.684,7.576,3.684,7.576a15.591,15.591,0,0,0,7.69-8.325Z" transform="translate(-451.484 -217.716)" fill="#ff9f00"/>
    <path id="Path_4875" data-name="Path 4875" d="M624.212,294.313s-.034.823-.067,2.121a12.776,12.776,0,0,1-2.53-.393c-9.482-2.5-6.711-15.38-5.685-19.125l1.636.184h0l.144.135c-4.47,9.483.629,14.093,4,15.978A12.825,12.825,0,0,0,624.212,294.313Z" transform="translate(-504.744 -219.28)" fill="#ff9f00"/>
    <path id="Path_4876" data-name="Path 4876" d="M649.4,375.209s-.918.034-2.315.135a73.108,73.108,0,0,1-1.676-7.809c-.405-2.836-.276-9.814-.141-14.235.037-1.157.071-2.143.1-2.827a12.829,12.829,0,0,0,2.5,1.1s-.034.823-.068,2.121c-.1,4.2-.184,13.412.988,15.991C650.321,373.061,649.4,375.209,649.4,375.209Z" transform="translate(-528.396 -276.538)" fill="#ff9f00"/>
    <path id="Path_4877" data-name="Path 4877" d="M534.837,359.763s9.823-4.7,19.34,0" transform="translate(-442.536 -282.144)" fill="#ff9f00"/>
    <path id="Path_4878" data-name="Path 4878" d="M525.489,466.105a68.024,68.024,0,0,1,9.97.443c7.09.665,18.833-3.767,18.833-3.767" transform="translate(-435.259 -363.964)" fill="#cacaca"/>
    <path id="Path_4879" data-name="Path 4879" d="M258.624,208.728v.21c0,.055,0,.113,0,.168a13,13,0,0,1-2.852,7.888c-.091.117-.186.23-.284.343-.146.173-.3.339-.452.5-.013.013-.027.029-.042.042l-.007.007-.053.055q-.409.422-.857.809c-.06.051-.122.1-.186.155a13.026,13.026,0,0,1-8.227,3c-.022,0-.047,0-.069,0h-.078c-.022,0-.044,0-.066,0-.078,0-.153,0-.23,0a13.012,13.012,0,0,1-8.178-3.144c-.062-.051-.124-.1-.184-.16-.237-.208-.465-.428-.685-.654l-.053-.055-.007-.007c-.016-.013-.029-.029-.042-.042-.186-.195-.366-.4-.538-.6q-.143-.169-.279-.346a12.987,12.987,0,0,1-2.776-7.792c0-.053,0-.109,0-.164v-.206c0-.024,0-.049,0-.073a13,13,0,0,1,2.727-7.826q.136-.176.279-.346c.175-.213.359-.419.547-.62.013-.016.027-.029.042-.044,0,0,0,0,0-.007.018-.018.035-.038.055-.055q.369-.382.769-.736c.06-.055.122-.109.184-.16a13.023,13.023,0,0,1,8.353-3.109c.022,0,.047,0,.069,0h.144a13.028,13.028,0,0,1,8.2,2.969l.186.157c.324.275.634.567.928.873l.053.055,0,0c.016.013.031.031.044.044.164.173.321.352.474.534.1.113.191.226.284.343a13,13,0,0,1,2.8,7.923A.619.619,0,0,1,258.624,208.728Z" transform="translate(-207.163 -156.105)" fill="#ff9f00"/>
    <rect id="Rectangle_3218" data-name="Rectangle 3218" width="0.443" height="26.145" transform="translate(38.054 39.709)" fill="#fff"/>
    <rect id="Rectangle_3219" data-name="Rectangle 3219" width="26.258" height="0.443" transform="translate(25.203 52.559)" fill="#fff"/>
    <path id="Path_4880" data-name="Path 4880" d="M249.485,225.291a10.176,10.176,0,0,0-4.416-8.171q-.143.169-.279.346a9.74,9.74,0,0,1,4.254,7.826c0,.073,0,.146,0,.222s0,.148,0,.222a9.75,9.75,0,0,1-4.2,7.792q.136.176.279.346a10.183,10.183,0,0,0,4.365-8.138c0-.073,0-.148,0-.222S249.49,225.364,249.485,225.291Z" transform="translate(-216.753 -172.732)" fill="#fff"/>
    <path id="Path_4881" data-name="Path 4881" d="M316.445,225.4c0-.073,0-.146,0-.222s0-.148,0-.222a9.748,9.748,0,0,1,4.4-7.923c-.093-.117-.186-.23-.284-.343A10.184,10.184,0,0,0,316,224.957c0,.073,0,.148,0,.222s0,.148,0,.222a10.181,10.181,0,0,0,4.5,8.231c.1-.113.193-.226.284-.343A9.745,9.745,0,0,1,316.445,225.4Z" transform="translate(-272.185 -172.397)" fill="#fff"/>
  </g>
</svg>
