<svg xmlns="http://www.w3.org/2000/svg" width="48.152" height="82.274" viewBox="0 0 48.152 82.274">
  <g id="Group_9036" data-name="Group 9036" transform="translate(-15706.002 -2561.314)">
    <g id="Group_8650" data-name="Group 8650" transform="translate(16610.75 1870.328)">
      <rect id="Rectangle_3206" data-name="Rectangle 3206" width="48.152" height="82.274" rx="5" transform="translate(-904.749 690.986)" fill="#30aa3b"/>
      <path id="Path_5071" data-name="Path 5071" d="M-836.894,760.159a.333.333,0,0,0-.331.338v0a2.148,2.148,0,0,1-1.957,2.3,2.148,2.148,0,0,1-1.957-2.3v0a.333.333,0,0,0-.331-.338h-18.1V827.85h41.235V760.159Z" transform="translate(-41.726 -63.879)" fill="#fff"/>
      <path id="Path_5072" data-name="Path 5072" d="M-819.608,826.581h-41.465V758.66h18.218a.44.44,0,0,1,.313.13.453.453,0,0,1,.133.323,2.038,2.038,0,0,0,1.842,2.187,2.037,2.037,0,0,0,1.842-2.183.456.456,0,0,1,.133-.327.44.44,0,0,1,.313-.13h18.672Zm-41.235-.23h41.006V758.89H-838.28a.211.211,0,0,0-.151.062.225.225,0,0,0-.065.161,2.266,2.266,0,0,1-2.071,2.417,2.264,2.264,0,0,1-2.071-2.413.228.228,0,0,0-.066-.164.211.211,0,0,0-.151-.062h-17.989Z" transform="translate(-40.34 -62.494)" fill="none"/>
      <path id="Path_5073" data-name="Path 5073" d="M-632.424,1673.761a2.614,2.614,0,0,1-2.614,2.614,2.614,2.614,0,0,1-2.614-2.614,2.614,2.614,0,0,1,2.614-2.614A2.614,2.614,0,0,1-632.424,1673.761Z" transform="translate(-246.098 -905.138)" fill="#fff"/>
      <path id="Path_5074" data-name="Path 5074" d="M-636.423,1675.1a2.732,2.732,0,0,1-2.728-2.728,2.732,2.732,0,0,1,2.728-2.729,2.732,2.732,0,0,1,2.728,2.729A2.732,2.732,0,0,1-636.423,1675.1Zm0-5.227a2.5,2.5,0,0,0-2.5,2.5,2.5,2.5,0,0,0,2.5,2.5,2.5,2.5,0,0,0,2.5-2.5A2.5,2.5,0,0,0-636.423,1669.877Z" transform="translate(-245.276 -903.753)" fill="none"/>
      <path id="Path_5075" data-name="Path 5075" d="M-596.884,971.667h-6.808a.115.115,0,0,1-.115-.115.115.115,0,0,1,.115-.115h6.808a.115.115,0,0,1,.115.115A.115.115,0,0,1-596.884,971.667Z" transform="translate(-277.915 -258.985)" fill="#0e2549"/>
      <path id="Rectangle_3207" data-name="Rectangle 3207" d="M1.858,0h25.9a1.858,1.858,0,0,1,1.858,1.858v0a1.858,1.858,0,0,1-1.858,1.858H1.858A1.858,1.858,0,0,1,0,1.858v0A1.858,1.858,0,0,1,1.858,0Z" transform="translate(-895.65 711.374)" fill="#0e2549"/>
      <rect id="Rectangle_3208" data-name="Rectangle 3208" width="8.131" height="2.658" transform="translate(-876.225 751.555)" fill="#d6d7e0"/>
      <rect id="Rectangle_3209" data-name="Rectangle 3209" width="16.873" height="3.886" transform="translate(-892.555 750.891)" fill="#ff9f00"/>
      <path id="Path_5077" data-name="Path 5077" d="M-739.94,1010.169v-29.3a1.72,1.72,0,0,0-1.72-1.72h19.612a1.678,1.678,0,0,1,1.72,1.678v29.339Z" transform="translate(-150.613 -266.11)" fill="#30aa3b"/>
      <path id="Path_5078" data-name="Path 5078" d="M-537.756,1316.183a5.81,5.81,0,0,1,5.725-5.653v5.653Z" transform="translate(-338.91 -572.124)" fill="#fff"/>
      <path id="Path_5079" data-name="Path 5079" d="M-719.183,1309.546a5.818,5.818,0,0,1,5.659,5.728h-5.659Z" transform="translate(-171.37 -571.215)" fill="#fff"/>
      <path id="Path_5080" data-name="Path 5080" d="M-720.753,978.161a1.778,1.778,0,0,0-1.294-.509h-19.612v.23a1.607,1.607,0,0,1,1.606,1.605V1008.9h19.842V979.445A1.779,1.779,0,0,0-720.753,978.161Zm-19.071,30.507v-5.5a5.736,5.736,0,0,1,5.428,5.5Zm5.656,0a5.912,5.912,0,0,0-1.715-3.974,5.767,5.767,0,0,0-3.941-1.751V979.488a1.836,1.836,0,0,0-.947-1.605h18.727a1.548,1.548,0,0,1,1.131.444,1.552,1.552,0,0,1,.472,1.12v23.574a5.912,5.912,0,0,0-3.973,1.712,5.76,5.76,0,0,0-1.75,3.938Zm13.726,0h-5.495a5.731,5.731,0,0,1,5.495-5.422Z" transform="translate(-150.615 -264.724)" fill="#0e2549"/>
      <path id="Path_5081" data-name="Path 5081" d="M-630.638,1347.023h-6.618a.115.115,0,0,1-.115-.115.115.115,0,0,1,.115-.115h6.618a.115.115,0,0,1,.115.115A.115.115,0,0,1-630.638,1347.023Z" transform="translate(-246.921 -605.611)" fill="#0e2549"/>
      <path id="Path_5082" data-name="Path 5082" d="M-491.85,1021.394a.115.115,0,0,1-.115-.115V999.441a.115.115,0,0,1,.115-.115.115.115,0,0,1,.115.115v21.838A.115.115,0,0,1-491.85,1021.394Z" transform="translate(-381.197 -284.74)" fill="#0e2549"/>
      <path id="Path_5083" data-name="Path 5083" d="M-691.225,1022.573a.115.115,0,0,1-.115-.115V1000.62a.115.115,0,0,1,.115-.115.115.115,0,0,1,.115.115v21.838A.115.115,0,0,1-691.225,1022.573Z" transform="translate(-197.082 -285.828)" fill="#0e2549"/>
      <ellipse id="Ellipse_397" data-name="Ellipse 397" cx="5.013" cy="4.091" rx="5.013" ry="4.091" transform="translate(-886.222 722.121)" fill="#fff"/>
      <path id="Path_5084" data-name="Path 5084" d="M-658.965,1104.675c-2.828,0-5.128-1.886-5.128-4.206s2.3-4.206,5.128-4.206,5.128,1.887,5.128,4.206S-656.137,1104.675-658.965,1104.675Zm0-8.182c-2.7,0-4.9,1.784-4.9,3.976s2.2,3.976,4.9,3.976,4.9-1.784,4.9-3.976S-656.264,1096.494-658.965,1096.494Z" transform="translate(-222.243 -374.258)" fill="#0e2549"/>
    </g>
    <path id="Path_2483" data-name="Path 2483" d="M-167.983,392.119c-.29-.077-.436-.225-.456-.454a.5.5,0,0,1,.443-.532.481.481,0,0,1,.541.386,1.3,1.3,0,0,1-.444,1.3,1.144,1.144,0,0,1-1.172.2,1.174,1.174,0,0,1-.785-.936,4.709,4.709,0,0,1-.028-.719c0-.233,0-.466,0-.717-.166,0-.329,0-.491,0a.235.235,0,0,1-.2-.366.328.328,0,0,1,.207-.113,4.391,4.391,0,0,1,.476-.005.89.89,0,0,0,.01-.093q0-.43,0-.86a.25.25,0,0,0-.232-.275.246.246,0,0,0-.254.239.255.255,0,0,1-.27.251.259.259,0,0,1-.216-.329.737.737,0,0,1,.678-.648.729.729,0,0,1,.76.563.889.889,0,0,1,.019.2c0,.271.005.543,0,.814,0,.1.021.139.131.136.271-.008.543,0,.814,0a.252.252,0,0,1,.284.246c0,.146-.114.242-.287.242h-.939c0,.116,0,.222,0,.328.005.34-.008.681.023,1.018a.728.728,0,0,0,.676.612A.7.7,0,0,0-167.983,392.119Z" transform="translate(15898.673 2205.732)" fill="#30b847"/>
  </g>
</svg>
