<svg xmlns="http://www.w3.org/2000/svg" width="1928.018" height="90.861" viewBox="0 0 1928.018 90.861">
  <path id="Subtraction_1" data-name="Subtraction 1" d="M1946.5,898.5H18.482c17.984-.638,49.125-3.187,95.351-11.715,55.06-10.158,117.7-26.218,186.2-47.733,62.726-19.7,129.01-29.695,197.01-29.695a702.592,702.592,0,0,1,80.39,4.64c21.3,2.463,42.386,5.9,62.663,10.208,18.04,3.834,32.091,7.667,40.7,10.208,9.344,2.756,14.458,4.621,14.508,4.64.358.124,8.94,3.078,23.922,7.463,13.96,4.085,36.393,10.25,63.987,16.418,31.015,6.932,62.1,12.456,92.382,16.418A845.993,845.993,0,0,0,984.7,886.812a633.09,633.09,0,0,0,77.1-4.523c13.092-1.615,25.976-3.69,38.3-6.169,12.887-2.593,25.516-5.7,37.536-9.231,34.457-10.127,64.384-18.431,91.489-25.386,29.734-7.63,56.311-13.706,81.248-18.576,26.363-5.148,50.521-8.88,73.853-11.408,11.865-1.286,23.655-2.263,35.043-2.9,11.521-.649,23.049-.978,34.261-.978,11.412,0,22.908.341,34.167,1.012,11.305.674,22.778,1.706,34.1,3.068s22.895,3.1,34.4,5.169c11.463,2.061,23.262,4.523,35.067,7.317,74.559,17.643,129.046,32.329,168.83,43.053l.007,0c35.467,9.56,58.9,15.876,73.976,18.19,30.323,4.655,104.114,12.106,112.428,12.941v.109Z" transform="translate(-18.482 -807.638)" fill="#fff"/>
</svg>
