<svg xmlns="http://www.w3.org/2000/svg" width="71.098" height="76.406" viewBox="0 0 71.098 76.406">
  <g id="Group_8626" data-name="Group 8626" transform="translate(-234.504 -92.991)">
    <g id="Group_8617" data-name="Group 8617" transform="translate(234.504 113.006)">
      <g id="Group_8616" data-name="Group 8616" transform="translate(0 0)">
        <g id="Group_8609" data-name="Group 8609" transform="translate(1.979 27.875)">
          <path id="Path_4909" data-name="Path 4909" d="M284.607,206.238v7.526a2.887,2.887,0,0,1-1.053,2.058,7.35,7.35,0,0,1-.67.552,11.616,11.616,0,0,1-1.724,1.005c-.214.1-.436.2-.67.3a22.976,22.976,0,0,1-2.73.961c-.218.065-.44.131-.666.2-1.107.3-2.306.566-3.591.8l-.67.118c-1.053.171-2.156.329-3.3.454-.222.019-.445.046-.666.066-.767.078-1.548.138-2.347.19-.223.02-.445.033-.67.046-1,.053-2.021.085-3.064.106-.222,0-.444.006-.669.006h-.479c-.973,0-1.93-.02-2.871-.053-.226-.006-.448-.02-.67-.026-.961-.046-1.9-.112-2.821-.191l-.675-.059c-.636-.059-1.256-.132-1.865-.2-.225-.033-.447-.06-.67-.093-.773-.1-1.527-.223-2.251-.355-.227-.039-.449-.079-.667-.125-.632-.119-1.237-.25-1.823-.394-.225-.053-.448-.105-.666-.164-.727-.185-1.413-.382-2.06-.6-.23-.073-.451-.152-.67-.231a17.415,17.415,0,0,1-1.865-.776c-.238-.112-.461-.23-.674-.348a8.7,8.7,0,0,1-1.432-.966,5.007,5.007,0,0,1-.674-.683,2.562,2.562,0,0,1-.621-1.591v-7.526Z" transform="translate(-238.657 -200.166)" fill="#ffb500"/>
          <path id="Path_4910" data-name="Path 4910" d="M284.607,199.569c0,3.355-10.286,6.074-22.975,6.074s-22.975-2.719-22.975-6.074,10.287-6.074,22.975-6.074S284.607,196.215,284.607,199.569Z" transform="translate(-238.657 -193.495)" fill="#ffd400"/>
          <path id="Path_4911" data-name="Path 4911" d="M285.014,199.956c0,2.307-8.443,4.177-18.858,4.177s-18.858-1.871-18.858-4.177,8.443-4.178,18.858-4.178S285.014,197.649,285.014,199.956Z" transform="translate(-243.181 -194.69)" fill="#ffc400"/>
          <path id="Path_4912" data-name="Path 4912" d="M247.873,200.984c2.067-1.811,9.467-3.152,18.283-3.152s16.216,1.34,18.283,3.152a1.412,1.412,0,0,0,.575-1.027c0-2.308-8.443-4.178-18.858-4.178s-18.858,1.871-18.858,4.178A1.412,1.412,0,0,0,247.873,200.984Z" transform="translate(-243.181 -194.69)" fill="#fb9800"/>
          <g id="Group_8608" data-name="Group 8608" transform="translate(0.621 8.701)">
            <path id="Path_4913" data-name="Path 4913" d="M240.635,213.314v6.429a5.006,5.006,0,0,1-.674-.683v-5.746Z" transform="translate(-239.961 -212.571)" fill="#fb9800"/>
            <path id="Path_4914" data-name="Path 4914" d="M245.054,217.274v5.857c-.238-.111-.461-.23-.674-.348v-5.509Z" transform="translate(-242.274 -214.644)" fill="#fb9800"/>
            <path id="Path_4915" data-name="Path 4915" d="M250.378,219.7v5.707c-.23-.073-.451-.152-.67-.231V219.7Z" transform="translate(-245.064 -215.915)" fill="#fb9800"/>
            <path id="Path_4916" data-name="Path 4916" d="M256.1,221.33v5.693c-.225-.053-.448-.105-.666-.164V221.33Z" transform="translate(-248.063 -216.768)" fill="#fb9800"/>
            <path id="Path_4917" data-name="Path 4917" d="M261.328,222.889v5.469c-.227-.039-.449-.079-.667-.125v-5.344Z" transform="translate(-250.798 -217.584)" fill="#fb9800"/>
            <path id="Path_4918" data-name="Path 4918" d="M267.453,223.924v5.423c-.225-.033-.447-.06-.67-.093v-5.331Z" transform="translate(-254.002 -218.126)" fill="#fb9800"/>
            <path id="Path_4919" data-name="Path 4919" d="M272.779,223.924v5.686l-.675-.059v-5.627Z" transform="translate(-256.788 -218.126)" fill="#fb9800"/>
            <path id="Path_4920" data-name="Path 4920" d="M280.111,223.924v5.9c-.226-.006-.448-.02-.67-.026v-5.877Z" transform="translate(-260.629 -218.126)" fill="#fb9800"/>
            <path id="Path_4921" data-name="Path 4921" d="M288.549,222.889v6.443c-.222,0-.444.006-.669.006v-6.449Z" transform="translate(-265.047 -217.584)" fill="#fb9800"/>
            <path id="Path_4922" data-name="Path 4922" d="M296.384,221.33v7.034c-.223.02-.445.033-.67.046v-7.08Z" transform="translate(-269.148 -216.768)" fill="#fb9800"/>
            <path id="Path_4923" data-name="Path 4923" d="M302.713,221.33v6.778c-.222.019-.445.046-.666.066V221.33Z" transform="translate(-272.463 -216.768)" fill="#fb9800"/>
            <path id="Path_4924" data-name="Path 4924" d="M311.049,219.7v6.982l-.67.118v-7.1Z" transform="translate(-276.825 -215.915)" fill="#fb9800"/>
            <path id="Path_4925" data-name="Path 4925" d="M319.989,218.143v6.732c-.218.065-.44.131-.666.2v-6.929Z" transform="translate(-281.507 -215.099)" fill="#fb9800"/>
            <path id="Path_4926" data-name="Path 4926" d="M327.12,214.35v7.277c-.214.1-.436.2-.67.3V214.35Z" transform="translate(-285.238 -213.113)" fill="#fb9800"/>
            <path id="Path_4927" data-name="Path 4927" d="M332.143,211.755v6.955a7.35,7.35,0,0,1-.67.552v-7.508Z" transform="translate(-287.868 -211.755)" fill="#fb9800"/>
          </g>
          <path id="Path_4928" data-name="Path 4928" d="M283.554,217.11a7.349,7.349,0,0,1-.67.551,11.533,11.533,0,0,1-1.724,1.006c-.214.1-.436.2-.67.3a22.978,22.978,0,0,1-2.73.96l-.666.2c-1.107.3-2.306.565-3.591.795-.219.04-.445.079-.67.119-1.053.171-2.156.329-3.3.454-.222.02-.445.046-.666.065-.767.079-1.548.139-2.347.191-.223.02-.445.033-.67.046-1,.052-2.021.085-3.064.1-.222,0-.444.006-.669.006h-.479c-.973,0-1.93-.019-2.871-.052-.226-.007-.448-.02-.67-.027-.961-.045-1.9-.112-2.821-.19l-.675-.059c-.636-.06-1.256-.132-1.865-.2-.225-.033-.447-.059-.67-.092-.773-.1-1.527-.223-2.251-.355-.227-.039-.449-.079-.667-.125-.632-.118-1.237-.25-1.823-.395-.225-.052-.448-.105-.666-.164-.727-.184-1.413-.382-2.06-.6-.23-.072-.451-.151-.67-.23a17.412,17.412,0,0,1-1.865-.776c-.238-.111-.461-.23-.674-.348a8.735,8.735,0,0,1-1.432-.966,4.981,4.981,0,0,1-.674-.683,2.561,2.561,0,0,1-.621-1.591v3.326a2.562,2.562,0,0,0,.621,1.592,5.009,5.009,0,0,0,.674.683,8.7,8.7,0,0,0,1.432.966c.213.119.436.237.674.348a17.415,17.415,0,0,0,1.865.776c.219.079.44.158.67.231.647.216,1.333.414,2.06.6.218.059.441.111.666.164.586.144,1.191.275,1.823.394.218.046.44.086.667.125.723.132,1.478.25,2.251.355.223.033.445.06.67.093.609.072,1.229.144,1.865.2l.675.059c.919.079,1.86.145,2.821.191.222.007.444.02.67.026.942.033,1.9.053,2.871.053h.479c.225,0,.447-.006.669-.006,1.043-.02,2.064-.053,3.064-.106.226-.013.448-.026.67-.046.8-.052,1.581-.112,2.347-.19.221-.02.444-.047.666-.066,1.149-.125,2.251-.283,3.3-.454l.67-.118c1.286-.23,2.484-.5,3.591-.8.226-.066.448-.132.666-.2a22.975,22.975,0,0,0,2.73-.961c.234-.1.456-.2.67-.3a11.618,11.618,0,0,0,1.724-1.005,7.357,7.357,0,0,0,.67-.552,2.887,2.887,0,0,0,1.053-2.058v-3.326A2.891,2.891,0,0,1,283.554,217.11Z" transform="translate(-238.657 -204.78)" fill="#e5d6d6" style="mix-blend-mode: multiply;isolation: isolate"/>
        </g>
        <g id="Group_8611" data-name="Group 8611" transform="translate(0 18.735)">
          <path id="Path_4929" data-name="Path 4929" d="M280.453,187.057v7.527a2.883,2.883,0,0,1-1.053,2.058,7.331,7.331,0,0,1-.67.552,11.692,11.692,0,0,1-1.723,1.006c-.213.1-.436.2-.67.3a22.927,22.927,0,0,1-2.73.96q-.327.1-.666.2c-1.106.3-2.305.565-3.591.8l-.671.118c-1.053.171-2.156.329-3.3.454-.222.02-.444.046-.666.066-.766.079-1.547.138-2.347.191-.222.02-.444.033-.67.046-1,.053-2.022.086-3.064.106-.221,0-.444.006-.669.006h-.478c-.973,0-1.93-.02-2.872-.053-.225-.006-.447-.02-.67-.026-.961-.046-1.9-.112-2.822-.191l-.674-.06c-.636-.059-1.256-.132-1.865-.2-.226-.032-.448-.059-.67-.092-.773-.105-1.528-.224-2.251-.355-.226-.039-.448-.078-.667-.125-.631-.118-1.236-.25-1.823-.394-.226-.053-.448-.105-.666-.164-.728-.184-1.413-.381-2.061-.6-.23-.072-.452-.151-.669-.231a17.326,17.326,0,0,1-1.865-.776c-.238-.112-.46-.23-.674-.348a8.647,8.647,0,0,1-1.432-.966,4.98,4.98,0,0,1-.674-.683,2.559,2.559,0,0,1-.621-1.591v-7.527Z" transform="translate(-234.504 -180.985)" fill="#ffb500"/>
          <path id="Path_4930" data-name="Path 4930" d="M280.453,180.389c0,3.355-10.286,6.074-22.974,6.074s-22.975-2.72-22.975-6.074,10.287-6.074,22.975-6.074S280.453,177.034,280.453,180.389Z" transform="translate(-234.504 -174.315)" fill="#ffd400"/>
          <path id="Path_4931" data-name="Path 4931" d="M280.86,180.776c0,2.307-8.444,4.177-18.858,4.177s-18.858-1.87-18.858-4.177S251.587,176.6,262,176.6,280.86,178.468,280.86,180.776Z" transform="translate(-239.027 -175.51)" fill="#ffc400"/>
          <path id="Path_4932" data-name="Path 4932" d="M243.72,181.8c2.067-1.811,9.467-3.151,18.283-3.151s16.216,1.339,18.282,3.151a1.409,1.409,0,0,0,.576-1.027c0-2.308-8.444-4.179-18.858-4.179s-18.858,1.871-18.858,4.179A1.408,1.408,0,0,0,243.72,181.8Z" transform="translate(-239.027 -175.51)" fill="#fb9800"/>
          <g id="Group_8610" data-name="Group 8610" transform="translate(0.621 8.701)">
            <path id="Path_4933" data-name="Path 4933" d="M236.481,194.134v6.429a4.978,4.978,0,0,1-.674-.683v-5.746Z" transform="translate(-235.807 -193.391)" fill="#fb9800"/>
            <path id="Path_4934" data-name="Path 4934" d="M240.9,198.093v5.857c-.238-.111-.46-.23-.674-.348v-5.509Z" transform="translate(-238.12 -195.464)" fill="#fb9800"/>
            <path id="Path_4935" data-name="Path 4935" d="M246.223,200.522v5.706c-.23-.072-.452-.151-.669-.231v-5.475Z" transform="translate(-240.91 -196.735)" fill="#fb9800"/>
            <path id="Path_4936" data-name="Path 4936" d="M251.95,202.149v5.693c-.226-.053-.448-.105-.666-.164v-5.529Z" transform="translate(-243.909 -197.587)" fill="#fb9800"/>
            <path id="Path_4937" data-name="Path 4937" d="M257.174,203.708v5.469c-.226-.039-.448-.078-.667-.125v-5.344Z" transform="translate(-246.644 -198.403)" fill="#fb9800"/>
            <path id="Path_4938" data-name="Path 4938" d="M263.3,204.743v5.423c-.226-.032-.448-.059-.67-.092v-5.332Z" transform="translate(-249.849 -198.945)" fill="#fb9800"/>
            <path id="Path_4939" data-name="Path 4939" d="M268.624,204.743v5.687l-.674-.06v-5.627Z" transform="translate(-252.634 -198.945)" fill="#fb9800"/>
            <path id="Path_4940" data-name="Path 4940" d="M275.957,204.743v5.9c-.225-.006-.447-.02-.67-.026v-5.877Z" transform="translate(-256.475 -198.945)" fill="#fb9800"/>
            <path id="Path_4941" data-name="Path 4941" d="M284.394,203.708v6.443c-.221,0-.444.006-.669.006v-6.449Z" transform="translate(-260.892 -198.403)" fill="#fb9800"/>
            <path id="Path_4942" data-name="Path 4942" d="M292.23,202.149v7.034c-.222.02-.444.033-.67.046v-7.08Z" transform="translate(-264.994 -197.587)" fill="#fb9800"/>
            <path id="Path_4943" data-name="Path 4943" d="M298.558,202.149v6.778c-.222.02-.444.046-.666.066v-6.843Z" transform="translate(-268.309 -197.587)" fill="#fb9800"/>
            <path id="Path_4944" data-name="Path 4944" d="M306.9,200.522V207.5l-.671.118v-7.1Z" transform="translate(-272.671 -196.735)" fill="#fb9800"/>
            <path id="Path_4945" data-name="Path 4945" d="M315.836,198.963v6.731c-.218.066-.44.131-.666.2v-6.929Z" transform="translate(-277.354 -195.919)" fill="#fb9800"/>
            <path id="Path_4946" data-name="Path 4946" d="M322.967,195.168v7.278c-.213.1-.436.2-.67.3v-7.58Z" transform="translate(-281.085 -193.932)" fill="#fb9800"/>
            <path id="Path_4947" data-name="Path 4947" d="M327.99,192.575v6.955a7.338,7.338,0,0,1-.67.552v-7.507Z" transform="translate(-283.714 -192.575)" fill="#fb9800"/>
          </g>
          <path id="Path_4948" data-name="Path 4948" d="M279.4,197.93a7.331,7.331,0,0,1-.67.552,11.69,11.69,0,0,1-1.723,1.006c-.213.1-.436.2-.67.3a23.1,23.1,0,0,1-2.73.96l-.666.2c-1.106.3-2.305.565-3.591.795-.219.04-.445.079-.671.119-1.053.171-2.156.329-3.3.454-.222.02-.444.046-.666.066-.766.078-1.547.138-2.347.19-.222.02-.444.033-.67.046-1,.053-2.022.086-3.064.106-.221,0-.444.007-.669.007h-.478c-.973,0-1.93-.02-2.872-.053-.225-.006-.447-.02-.67-.026-.961-.046-1.9-.112-2.822-.191l-.674-.059c-.636-.06-1.256-.132-1.865-.2-.226-.033-.448-.059-.67-.092-.773-.1-1.528-.223-2.251-.355-.226-.039-.448-.079-.667-.125-.631-.118-1.236-.25-1.823-.394-.226-.052-.448-.1-.666-.164-.728-.184-1.413-.381-2.061-.6-.23-.072-.452-.151-.669-.23a17.418,17.418,0,0,1-1.865-.776c-.238-.112-.46-.229-.674-.348a8.737,8.737,0,0,1-1.432-.966,5.01,5.01,0,0,1-.674-.684,2.559,2.559,0,0,1-.621-1.591V199.2a2.559,2.559,0,0,0,.621,1.591,4.981,4.981,0,0,0,.674.683,8.647,8.647,0,0,0,1.432.966c.214.119.436.237.674.348a17.323,17.323,0,0,0,1.865.776c.218.08.44.158.669.231.648.217,1.333.414,2.061.6.218.059.44.112.666.164.586.144,1.191.276,1.823.394.219.047.441.086.667.125.723.132,1.478.25,2.251.355.222.033.444.06.67.092.609.072,1.229.145,1.865.2l.674.06c.919.079,1.861.144,2.822.191.223.006.445.02.67.026.942.033,1.9.053,2.872.053h.478c.225,0,.448-.006.669-.006,1.042-.02,2.065-.053,3.064-.106.226-.013.448-.026.67-.046.8-.052,1.581-.112,2.347-.191.223-.02.444-.046.666-.066,1.149-.124,2.251-.283,3.3-.454l.671-.118c1.286-.231,2.485-.5,3.591-.8.226-.066.447-.132.666-.2a22.921,22.921,0,0,0,2.73-.96c.233-.1.456-.2.67-.3a11.692,11.692,0,0,0,1.723-1.006,7.331,7.331,0,0,0,.67-.552,2.883,2.883,0,0,0,1.053-2.058v-3.326A2.882,2.882,0,0,1,279.4,197.93Z" transform="translate(-234.504 -185.601)" fill="#e5d6d6" style="mix-blend-mode: multiply;isolation: isolate"/>
        </g>
        <g id="Group_8613" data-name="Group 8613" transform="translate(1.979 9.139)">
          <path id="Path_4949" data-name="Path 4949" d="M284.607,166.918v7.527a2.89,2.89,0,0,1-1.053,2.058,7.513,7.513,0,0,1-.67.552,11.574,11.574,0,0,1-1.724,1.005c-.214.1-.436.2-.67.3a22.9,22.9,0,0,1-2.73.959c-.218.066-.44.132-.666.2-1.107.3-2.306.565-3.591.795-.219.04-.445.08-.67.119-1.053.171-2.156.328-3.3.453-.222.02-.445.046-.666.066-.767.079-1.548.138-2.347.191-.223.02-.445.032-.67.046-1,.052-2.021.085-3.064.1-.222,0-.444.007-.669.007h-.479c-.973,0-1.93-.02-2.871-.052-.226-.007-.448-.02-.67-.027-.961-.046-1.9-.111-2.821-.191l-.675-.059c-.636-.059-1.256-.132-1.865-.2-.225-.032-.447-.059-.67-.092-.773-.105-1.527-.223-2.251-.355-.227-.039-.449-.079-.667-.125-.632-.118-1.237-.25-1.823-.394-.225-.053-.448-.106-.666-.164-.727-.184-1.413-.381-2.06-.6-.23-.072-.451-.151-.67-.23a17.418,17.418,0,0,1-1.865-.776c-.238-.111-.461-.23-.674-.348a8.7,8.7,0,0,1-1.432-.966,4.929,4.929,0,0,1-.674-.684,2.559,2.559,0,0,1-.621-1.591v-7.527Z" transform="translate(-238.657 -160.846)" fill="#ffb500"/>
          <path id="Path_4950" data-name="Path 4950" d="M284.607,160.251c0,3.354-10.286,6.074-22.975,6.074s-22.975-2.72-22.975-6.074,10.287-6.075,22.975-6.075S284.607,156.9,284.607,160.251Z" transform="translate(-238.657 -154.176)" fill="#ffd400"/>
          <path id="Path_4951" data-name="Path 4951" d="M285.014,160.638c0,2.308-8.443,4.178-18.858,4.178s-18.858-1.87-18.858-4.178,8.443-4.178,18.858-4.178S285.014,158.331,285.014,160.638Z" transform="translate(-243.181 -155.372)" fill="#ffc400"/>
          <path id="Path_4952" data-name="Path 4952" d="M247.873,161.665c2.067-1.811,9.467-3.151,18.283-3.151s16.216,1.34,18.283,3.151a1.412,1.412,0,0,0,.575-1.027c0-2.307-8.443-4.178-18.858-4.178s-18.858,1.871-18.858,4.178A1.412,1.412,0,0,0,247.873,161.665Z" transform="translate(-243.181 -155.372)" fill="#fb9800"/>
          <g id="Group_8612" data-name="Group 8612" transform="translate(0.621 8.701)">
            <path id="Path_4953" data-name="Path 4953" d="M240.635,174v6.429a4.928,4.928,0,0,1-.674-.684V174Z" transform="translate(-239.961 -173.253)" fill="#fb9800"/>
            <path id="Path_4954" data-name="Path 4954" d="M245.054,177.955v5.857c-.238-.111-.461-.23-.674-.348v-5.509Z" transform="translate(-242.274 -175.325)" fill="#fb9800"/>
            <path id="Path_4955" data-name="Path 4955" d="M250.378,180.383v5.706c-.23-.072-.451-.151-.67-.23v-5.476Z" transform="translate(-245.064 -176.596)" fill="#fb9800"/>
            <path id="Path_4956" data-name="Path 4956" d="M256.1,182.011V187.7c-.225-.053-.448-.106-.666-.164v-5.529Z" transform="translate(-248.063 -177.449)" fill="#fb9800"/>
            <path id="Path_4957" data-name="Path 4957" d="M261.328,183.57v5.469c-.227-.039-.449-.079-.667-.125V183.57Z" transform="translate(-250.798 -178.265)" fill="#fb9800"/>
            <path id="Path_4958" data-name="Path 4958" d="M267.453,184.6v5.423c-.225-.032-.447-.059-.67-.092V184.6Z" transform="translate(-254.002 -178.807)" fill="#fb9800"/>
            <path id="Path_4959" data-name="Path 4959" d="M272.779,184.6v5.686l-.675-.059V184.6Z" transform="translate(-256.788 -178.807)" fill="#fb9800"/>
            <path id="Path_4960" data-name="Path 4960" d="M280.111,184.6v5.9c-.226-.007-.448-.02-.67-.027V184.6Z" transform="translate(-260.629 -178.807)" fill="#fb9800"/>
            <path id="Path_4961" data-name="Path 4961" d="M288.549,183.57v6.442c-.222,0-.444.007-.669.007V183.57Z" transform="translate(-265.047 -178.265)" fill="#fb9800"/>
            <path id="Path_4962" data-name="Path 4962" d="M296.384,182.011v7.034c-.223.02-.445.032-.67.046v-7.08Z" transform="translate(-269.148 -177.449)" fill="#fb9800"/>
            <path id="Path_4963" data-name="Path 4963" d="M302.713,182.011v6.778c-.222.02-.445.046-.666.066v-6.843Z" transform="translate(-272.463 -177.449)" fill="#fb9800"/>
            <path id="Path_4964" data-name="Path 4964" d="M311.049,180.383v6.981c-.219.04-.445.08-.67.119v-7.1Z" transform="translate(-276.825 -176.596)" fill="#fb9800"/>
            <path id="Path_4965" data-name="Path 4965" d="M319.989,178.824v6.731c-.218.066-.44.132-.666.2v-6.929Z" transform="translate(-281.507 -175.78)" fill="#fb9800"/>
            <path id="Path_4966" data-name="Path 4966" d="M327.12,175.03v7.277c-.214.1-.436.2-.67.3v-7.58Z" transform="translate(-285.238 -173.794)" fill="#fb9800"/>
            <path id="Path_4967" data-name="Path 4967" d="M332.143,172.436v6.956a7.509,7.509,0,0,1-.67.552v-7.508Z" transform="translate(-287.868 -172.436)" fill="#fb9800"/>
          </g>
          <path id="Path_4968" data-name="Path 4968" d="M283.554,177.792a7.355,7.355,0,0,1-.67.552,11.574,11.574,0,0,1-1.724,1.005c-.214.1-.436.2-.67.3a22.891,22.891,0,0,1-2.73.96l-.666.2c-1.107.3-2.306.565-3.591.8l-.67.118c-1.053.171-2.156.328-3.3.453-.222.019-.445.046-.666.066-.767.078-1.548.138-2.347.19-.223.02-.445.033-.67.046-1,.052-2.021.085-3.064.1-.222,0-.444.007-.669.007h-.479c-.973,0-1.93-.02-2.871-.052-.226-.007-.448-.02-.67-.026-.961-.046-1.9-.112-2.821-.191l-.675-.059c-.636-.059-1.256-.132-1.865-.2-.225-.033-.447-.06-.67-.092-.773-.1-1.527-.223-2.251-.355-.227-.039-.449-.079-.667-.125-.632-.118-1.237-.25-1.823-.394-.225-.052-.448-.105-.666-.164-.727-.184-1.413-.381-2.06-.6-.23-.073-.451-.152-.67-.23a17.518,17.518,0,0,1-1.865-.776c-.238-.112-.461-.23-.674-.348a8.733,8.733,0,0,1-1.432-.967,4.957,4.957,0,0,1-.674-.684,2.559,2.559,0,0,1-.621-1.591v3.326a2.559,2.559,0,0,0,.621,1.591,4.929,4.929,0,0,0,.674.684,8.7,8.7,0,0,0,1.432.966c.213.119.436.237.674.348a17.415,17.415,0,0,0,1.865.776c.219.079.44.158.67.23.647.217,1.333.414,2.06.6.218.059.441.111.666.164.586.144,1.191.276,1.823.394.218.046.44.086.667.125.723.132,1.478.25,2.251.355.223.033.445.06.67.092.609.072,1.229.145,1.865.2l.675.059c.919.079,1.86.144,2.821.191.222.007.444.02.67.027.942.033,1.9.052,2.871.052h.479c.225,0,.447-.007.669-.007,1.043-.02,2.064-.052,3.064-.1.226-.014.448-.027.67-.046.8-.052,1.581-.112,2.347-.191.221-.02.444-.046.666-.066,1.149-.125,2.251-.283,3.3-.453.226-.04.452-.079.67-.119,1.286-.23,2.484-.5,3.591-.795.226-.066.448-.132.666-.2a22.893,22.893,0,0,0,2.73-.959c.234-.1.456-.2.67-.3a11.577,11.577,0,0,0,1.724-1.005,7.516,7.516,0,0,0,.67-.552,2.89,2.89,0,0,0,1.053-2.058v-3.326A2.887,2.887,0,0,1,283.554,177.792Z" transform="translate(-238.657 -165.462)" fill="#e5d6d6" style="mix-blend-mode: multiply;isolation: isolate"/>
        </g>
        <g id="Group_8615" data-name="Group 8615" transform="translate(4.453)">
          <path id="Path_4969" data-name="Path 4969" d="M289.8,147.738v7.527a2.886,2.886,0,0,1-1.053,2.058,7.409,7.409,0,0,1-.67.552,11.683,11.683,0,0,1-1.723,1.006c-.214.1-.437.2-.67.3a22.936,22.936,0,0,1-2.73.96c-.218.065-.44.132-.666.2-1.106.3-2.305.565-3.592.8-.218.04-.444.08-.67.119-1.053.171-2.155.328-3.3.454-.223.02-.445.046-.667.066-.766.079-1.548.138-2.348.19-.221.02-.444.033-.669.046-1,.053-2.021.086-3.064.106-.222,0-.444.007-.669.007h-.479c-.973,0-1.929-.02-2.872-.053-.226-.007-.447-.02-.67-.026-.961-.046-1.9-.111-2.822-.191l-.674-.059c-.636-.059-1.256-.132-1.865-.2-.225-.033-.448-.059-.671-.092-.773-.1-1.527-.223-2.251-.355-.226-.039-.448-.078-.667-.125-.632-.118-1.237-.25-1.823-.394-.225-.053-.447-.105-.665-.165-.729-.183-1.414-.381-2.06-.6-.231-.072-.452-.151-.67-.23a17.483,17.483,0,0,1-1.865-.777c-.238-.112-.46-.23-.674-.348a8.706,8.706,0,0,1-1.432-.966,4.948,4.948,0,0,1-.673-.684,2.557,2.557,0,0,1-.621-1.591v-7.527Z" transform="translate(-243.85 -141.666)" fill="#ffb500"/>
          <path id="Path_4970" data-name="Path 4970" d="M289.8,141.07c0,3.355-10.286,6.074-22.975,6.074s-22.975-2.72-22.975-6.074S254.136,135,266.825,135,289.8,137.716,289.8,141.07Z" transform="translate(-243.85 -134.996)" fill="#ffd400"/>
          <path id="Path_4971" data-name="Path 4971" d="M290.206,141.457c0,2.307-8.443,4.177-18.858,4.177s-18.858-1.87-18.858-4.177,8.443-4.178,18.858-4.178S290.206,139.15,290.206,141.457Z" transform="translate(-248.373 -136.191)" fill="#ffc400"/>
          <path id="Path_4972" data-name="Path 4972" d="M253.066,142.484c2.067-1.811,9.467-3.151,18.282-3.151s16.215,1.34,18.283,3.151a1.411,1.411,0,0,0,.576-1.027c0-2.308-8.443-4.178-18.858-4.178s-18.858,1.871-18.858,4.178A1.41,1.41,0,0,0,253.066,142.484Z" transform="translate(-248.373 -136.191)" fill="#fb9800"/>
          <g id="Group_8614" data-name="Group 8614" transform="translate(0.621 8.701)">
            <path id="Path_4973" data-name="Path 4973" d="M245.827,154.815v6.429a4.948,4.948,0,0,1-.673-.684v-5.746Z" transform="translate(-245.154 -154.072)" fill="#fb9800"/>
            <path id="Path_4974" data-name="Path 4974" d="M250.246,158.774v5.857c-.238-.111-.46-.23-.674-.348v-5.509Z" transform="translate(-247.467 -156.145)" fill="#fb9800"/>
            <path id="Path_4975" data-name="Path 4975" d="M255.571,161.2v5.707c-.231-.072-.452-.151-.67-.23V161.2Z" transform="translate(-250.257 -157.416)" fill="#fb9800"/>
            <path id="Path_4976" data-name="Path 4976" d="M261.3,162.831v5.693c-.225-.053-.447-.105-.665-.165v-5.528Z" transform="translate(-253.256 -158.269)" fill="#fb9800"/>
            <path id="Path_4977" data-name="Path 4977" d="M266.519,164.39v5.469c-.226-.039-.448-.078-.667-.125V164.39Z" transform="translate(-255.99 -159.085)" fill="#fb9800"/>
            <path id="Path_4978" data-name="Path 4978" d="M272.646,165.424v5.423c-.225-.033-.448-.059-.671-.092v-5.331Z" transform="translate(-259.195 -159.626)" fill="#fb9800"/>
            <path id="Path_4979" data-name="Path 4979" d="M277.97,165.424v5.686l-.674-.059v-5.627Z" transform="translate(-261.98 -159.626)" fill="#fb9800"/>
            <path id="Path_4980" data-name="Path 4980" d="M285.3,165.424v5.9c-.226-.007-.447-.02-.67-.026v-5.877Z" transform="translate(-265.821 -159.626)" fill="#fb9800"/>
            <path id="Path_4981" data-name="Path 4981" d="M293.74,164.39v6.442c-.222,0-.444.007-.669.007V164.39Z" transform="translate(-270.239 -159.085)" fill="#fb9800"/>
            <path id="Path_4982" data-name="Path 4982" d="M301.576,162.831v7.034c-.221.02-.444.033-.669.046v-7.079Z" transform="translate(-274.34 -158.269)" fill="#fb9800"/>
            <path id="Path_4983" data-name="Path 4983" d="M307.905,162.831v6.778c-.223.02-.445.046-.667.066v-6.843Z" transform="translate(-277.655 -158.269)" fill="#fb9800"/>
            <path id="Path_4984" data-name="Path 4984" d="M316.241,161.2v6.982c-.218.04-.444.08-.67.119v-7.1Z" transform="translate(-282.018 -157.416)" fill="#fb9800"/>
            <path id="Path_4985" data-name="Path 4985" d="M325.181,159.645v6.731c-.218.065-.44.132-.666.2v-6.928Z" transform="translate(-286.7 -156.601)" fill="#fb9800"/>
            <path id="Path_4986" data-name="Path 4986" d="M332.313,155.85v7.277c-.214.1-.437.2-.67.3v-7.58Z" transform="translate(-290.431 -154.614)" fill="#fb9800"/>
            <path id="Path_4987" data-name="Path 4987" d="M337.335,153.256v6.955a7.4,7.4,0,0,1-.67.552v-7.507Z" transform="translate(-293.06 -153.256)" fill="#fb9800"/>
          </g>
          <path id="Path_4988" data-name="Path 4988" d="M288.746,158.611a7.488,7.488,0,0,1-.67.552,11.725,11.725,0,0,1-1.723,1.005c-.214.1-.437.2-.67.3a23.1,23.1,0,0,1-2.73.96c-.218.065-.44.131-.666.2-1.106.3-2.305.565-3.592.8-.218.04-.444.08-.67.119-1.053.17-2.155.329-3.3.454-.223.019-.445.046-.667.065-.766.078-1.548.138-2.348.191-.221.02-.444.033-.669.046-1,.052-2.021.085-3.064.105-.222,0-.444.006-.669.006h-.479c-.973,0-1.929-.02-2.872-.053-.226-.006-.447-.02-.67-.026-.961-.046-1.9-.112-2.822-.191l-.674-.059c-.636-.059-1.256-.132-1.865-.2-.225-.033-.448-.059-.671-.092-.773-.1-1.527-.223-2.251-.355-.226-.039-.448-.079-.667-.125-.632-.119-1.237-.25-1.823-.394-.225-.053-.447-.105-.665-.164-.729-.185-1.414-.382-2.06-.6-.231-.072-.452-.151-.67-.23a17.386,17.386,0,0,1-1.865-.776c-.238-.111-.46-.23-.674-.348a8.7,8.7,0,0,1-1.432-.966,4.973,4.973,0,0,1-.673-.683,2.559,2.559,0,0,1-.621-1.592v3.326a2.557,2.557,0,0,0,.621,1.591,4.948,4.948,0,0,0,.673.684,8.7,8.7,0,0,0,1.432.966c.214.118.436.236.674.348a17.473,17.473,0,0,0,1.865.777c.218.079.439.158.67.23.647.217,1.332.415,2.06.6.218.06.44.112.665.165.587.144,1.191.276,1.823.394.219.047.441.086.667.125.724.132,1.478.251,2.251.355.223.033.446.06.671.092.608.072,1.229.145,1.865.2l.674.059c.92.079,1.861.145,2.822.191.223.007.444.02.67.026.943.033,1.9.053,2.872.053h.479c.225,0,.447-.007.669-.007,1.043-.02,2.065-.053,3.064-.106.226-.012.448-.026.669-.046.8-.052,1.581-.111,2.348-.19.222-.02.444-.046.667-.066,1.148-.125,2.25-.283,3.3-.454.226-.039.452-.079.67-.119,1.287-.23,2.485-.5,3.592-.8.226-.065.448-.132.666-.2a22.931,22.931,0,0,0,2.73-.96c.233-.1.456-.2.67-.3a11.681,11.681,0,0,0,1.723-1.006,7.4,7.4,0,0,0,.67-.552,2.886,2.886,0,0,0,1.053-2.058v-3.326A2.886,2.886,0,0,1,288.746,158.611Z" transform="translate(-243.85 -146.281)" fill="#e5d6d6" style="mix-blend-mode: multiply;isolation: isolate"/>
        </g>
      </g>
    </g>
    <g id="Group_8619" data-name="Group 8619" transform="translate(237.95 102.131)">
      <path id="Path_4989" data-name="Path 4989" d="M287.687,124.914v7.527a2.885,2.885,0,0,1-1.053,2.058,7.291,7.291,0,0,1-.671.553,11.61,11.61,0,0,1-1.723,1.005c-.214.1-.436.2-.67.3a23.018,23.018,0,0,1-2.73.96c-.218.065-.44.132-.666.2-1.107.3-2.305.565-3.591.8l-.67.118c-1.054.171-2.156.329-3.3.454-.222.02-.445.046-.666.066-.766.079-1.548.138-2.347.191-.222.02-.445.032-.67.045-1,.054-2.022.086-3.064.106-.222,0-.444.007-.669.007h-.479c-.973,0-1.93-.02-2.871-.053-.226-.006-.448-.02-.67-.026-.961-.046-1.9-.112-2.821-.191l-.675-.059c-.635-.059-1.256-.132-1.865-.2-.225-.033-.448-.06-.671-.092-.773-.1-1.527-.223-2.25-.355-.226-.039-.448-.078-.666-.125-.632-.118-1.237-.25-1.824-.394-.225-.053-.447-.106-.666-.164-.727-.184-1.413-.382-2.06-.6-.23-.072-.451-.152-.67-.231a17.5,17.5,0,0,1-1.864-.776c-.238-.111-.46-.23-.674-.348a8.738,8.738,0,0,1-1.433-.966,4.922,4.922,0,0,1-.673-.684,2.557,2.557,0,0,1-.621-1.591v-7.527Z" transform="translate(-241.737 -118.842)" fill="#ffb500"/>
      <path id="Path_4990" data-name="Path 4990" d="M287.687,118.246c0,3.355-10.287,6.074-22.975,6.074s-22.975-2.719-22.975-6.074,10.286-6.074,22.975-6.074S287.687,114.891,287.687,118.246Z" transform="translate(-241.737 -112.172)" fill="#ffd400"/>
      <path id="Path_4991" data-name="Path 4991" d="M288.093,118.633c0,2.307-8.443,4.177-18.858,4.177s-18.858-1.871-18.858-4.177,8.443-4.178,18.858-4.178S288.093,116.325,288.093,118.633Z" transform="translate(-246.26 -113.367)" fill="#ffc400"/>
      <path id="Path_4992" data-name="Path 4992" d="M250.952,119.661c2.068-1.811,9.468-3.152,18.283-3.152s16.216,1.34,18.283,3.152a1.413,1.413,0,0,0,.576-1.027c0-2.308-8.443-4.178-18.858-4.178s-18.858,1.87-18.858,4.178A1.412,1.412,0,0,0,250.952,119.661Z" transform="translate(-246.26 -113.367)" fill="#fb9800"/>
      <g id="Group_8618" data-name="Group 8618" transform="translate(0.621 8.701)">
        <path id="Path_4993" data-name="Path 4993" d="M243.714,131.991v6.429a4.924,4.924,0,0,1-.673-.684v-5.746Z" transform="translate(-243.041 -131.248)" fill="#fb9800"/>
        <path id="Path_4994" data-name="Path 4994" d="M248.135,135.951v5.857c-.238-.111-.46-.23-.674-.348v-5.509Z" transform="translate(-245.355 -133.321)" fill="#fb9800"/>
        <path id="Path_4995" data-name="Path 4995" d="M253.457,138.379v5.707c-.23-.072-.451-.152-.67-.231v-5.476Z" transform="translate(-248.143 -134.592)" fill="#fb9800"/>
        <path id="Path_4996" data-name="Path 4996" d="M259.183,140.007V145.7c-.225-.053-.447-.106-.666-.164v-5.529Z" transform="translate(-251.143 -135.445)" fill="#fb9800"/>
        <path id="Path_4997" data-name="Path 4997" d="M264.407,141.565v5.469c-.226-.039-.448-.078-.666-.125v-5.344Z" transform="translate(-253.878 -136.26)" fill="#fb9800"/>
        <path id="Path_4998" data-name="Path 4998" d="M270.533,142.6v5.423c-.225-.033-.448-.06-.671-.092V142.6Z" transform="translate(-257.082 -136.803)" fill="#fb9800"/>
        <path id="Path_4999" data-name="Path 4999" d="M275.858,142.6v5.686l-.675-.059V142.6Z" transform="translate(-259.867 -136.803)" fill="#fb9800"/>
        <path id="Path_5000" data-name="Path 5000" d="M283.19,142.6v5.9c-.226-.006-.448-.02-.67-.026V142.6Z" transform="translate(-263.708 -136.803)" fill="#fb9800"/>
        <path id="Path_5001" data-name="Path 5001" d="M291.628,141.565v6.443c-.222,0-.444.007-.669.007v-6.449Z" transform="translate(-268.126 -136.26)" fill="#fb9800"/>
        <path id="Path_5002" data-name="Path 5002" d="M299.464,140.007v7.034c-.222.02-.445.032-.67.045v-7.079Z" transform="translate(-272.228 -135.445)" fill="#fb9800"/>
        <path id="Path_5003" data-name="Path 5003" d="M305.792,140.007v6.778c-.222.02-.445.046-.666.066v-6.843Z" transform="translate(-275.543 -135.445)" fill="#fb9800"/>
        <path id="Path_5004" data-name="Path 5004" d="M314.129,138.379v6.981l-.67.118v-7.1Z" transform="translate(-279.905 -134.592)" fill="#fb9800"/>
        <path id="Path_5005" data-name="Path 5005" d="M323.068,136.82v6.732c-.218.065-.44.132-.666.2V136.82Z" transform="translate(-284.587 -133.776)" fill="#fb9800"/>
        <path id="Path_5006" data-name="Path 5006" d="M330.2,133.026V140.3c-.214.1-.436.2-.67.3v-7.58Z" transform="translate(-288.318 -131.79)" fill="#fb9800"/>
        <path id="Path_5007" data-name="Path 5007" d="M335.223,130.432v6.955a7.291,7.291,0,0,1-.671.553v-7.508Z" transform="translate(-290.947 -130.432)" fill="#fb9800"/>
      </g>
      <path id="Path_5008" data-name="Path 5008" d="M286.634,135.787a7.288,7.288,0,0,1-.671.552,11.569,11.569,0,0,1-1.723,1.005c-.214.1-.436.2-.67.3a22.853,22.853,0,0,1-2.73.96l-.666.2c-1.107.3-2.305.565-3.591.795l-.67.119c-1.054.171-2.156.329-3.3.454-.222.02-.445.046-.666.066-.766.078-1.548.138-2.347.191-.222.02-.445.033-.67.046-1,.052-2.022.085-3.064.1-.222,0-.444.007-.669.007h-.479c-.973,0-1.93-.02-2.871-.052-.226-.007-.448-.02-.67-.027-.961-.046-1.9-.112-2.821-.191l-.675-.058c-.635-.06-1.256-.132-1.865-.2-.225-.033-.448-.06-.671-.093-.773-.1-1.527-.223-2.25-.355-.226-.039-.448-.079-.666-.125-.632-.118-1.237-.25-1.824-.394-.225-.053-.447-.105-.666-.164-.727-.184-1.413-.382-2.06-.6-.23-.073-.451-.152-.67-.231a17.4,17.4,0,0,1-1.864-.776c-.238-.111-.46-.23-.674-.348a8.739,8.739,0,0,1-1.433-.966,4.948,4.948,0,0,1-.673-.684,2.556,2.556,0,0,1-.621-1.591v3.326a2.557,2.557,0,0,0,.621,1.591,4.922,4.922,0,0,0,.673.684,8.738,8.738,0,0,0,1.433.966c.213.118.436.237.674.348a17.5,17.5,0,0,0,1.864.776c.219.079.44.158.67.231.647.216,1.333.414,2.06.6.218.059.44.111.666.164.587.144,1.192.275,1.824.394.218.047.44.086.666.125.723.132,1.478.25,2.25.355.223.033.446.06.671.092.609.072,1.229.145,1.865.2l.675.059c.919.079,1.861.144,2.821.191.223.007.444.02.67.026.942.033,1.9.053,2.871.053h.479c.225,0,.447-.007.669-.007,1.042-.02,2.064-.052,3.064-.106.225-.013.448-.026.67-.045.8-.052,1.582-.112,2.347-.191.221-.02.444-.046.666-.066,1.149-.125,2.251-.283,3.3-.454l.67-.118c1.286-.23,2.484-.5,3.591-.8.226-.065.448-.132.666-.2a23.021,23.021,0,0,0,2.73-.96c.233-.1.456-.2.67-.3a11.611,11.611,0,0,0,1.723-1.005,7.291,7.291,0,0,0,.671-.553,2.885,2.885,0,0,0,1.053-2.058v-3.326A2.886,2.886,0,0,1,286.634,135.787Z" transform="translate(-241.737 -123.457)" fill="#e5d6d6" style="mix-blend-mode: multiply;isolation: isolate"/>
    </g>
    <g id="Group_8621" data-name="Group 8621" transform="translate(235.971 92.991)">
      <path id="Path_5009" data-name="Path 5009" d="M283.532,105.734v7.527a2.883,2.883,0,0,1-1.053,2.057,7.408,7.408,0,0,1-.67.552,11.706,11.706,0,0,1-1.723,1.006c-.214.1-.436.2-.67.3a23.008,23.008,0,0,1-2.73.96c-.219.066-.441.132-.667.2-1.106.3-2.3.565-3.591.8-.218.04-.445.079-.671.118-1.052.171-2.155.329-3.3.454-.222.02-.444.046-.666.066-.766.079-1.547.138-2.348.191-.222.02-.444.033-.67.046-1,.052-2.022.085-3.063.105-.222,0-.445.007-.67.007h-.478c-.973,0-1.929-.02-2.872-.053-.226-.007-.447-.02-.67-.026-.961-.046-1.9-.111-2.822-.191l-.674-.059c-.636-.06-1.255-.132-1.864-.2-.226-.033-.448-.059-.67-.092-.773-.1-1.528-.223-2.251-.355-.226-.039-.448-.079-.667-.125-.631-.118-1.236-.249-1.822-.395-.226-.052-.449-.1-.667-.164-.728-.184-1.413-.381-2.06-.6-.23-.072-.451-.151-.669-.23a17.281,17.281,0,0,1-1.865-.775c-.238-.112-.46-.23-.674-.348a8.682,8.682,0,0,1-1.432-.967,4.979,4.979,0,0,1-.674-.683,2.559,2.559,0,0,1-.621-1.591v-7.527Z" transform="translate(-237.583 -99.662)" fill="#ffb500"/>
      <path id="Path_5010" data-name="Path 5010" d="M283.532,99.066c0,3.355-10.287,6.074-22.974,6.074s-22.975-2.719-22.975-6.074,10.287-6.075,22.975-6.075S283.532,95.711,283.532,99.066Z" transform="translate(-237.583 -92.991)" fill="#ffd400"/>
      <path id="Path_5011" data-name="Path 5011" d="M283.94,99.453c0,2.307-8.444,4.177-18.858,4.177s-18.858-1.87-18.858-4.177,8.443-4.179,18.858-4.179S283.94,97.145,283.94,99.453Z" transform="translate(-242.106 -94.186)" fill="#ffc400"/>
      <path id="Path_5012" data-name="Path 5012" d="M246.8,100.48c2.066-1.811,9.467-3.151,18.282-3.151s16.216,1.34,18.282,3.151a1.41,1.41,0,0,0,.577-1.027c0-2.308-8.444-4.179-18.858-4.179s-18.858,1.871-18.858,4.179A1.41,1.41,0,0,0,246.8,100.48Z" transform="translate(-242.106 -94.186)" fill="#fb9800"/>
      <g id="Group_8620" data-name="Group 8620" transform="translate(0.621 8.701)">
        <path id="Path_5013" data-name="Path 5013" d="M239.56,112.811v6.429a4.979,4.979,0,0,1-.674-.683v-5.746Z" transform="translate(-238.886 -112.068)" fill="#fb9800"/>
        <path id="Path_5014" data-name="Path 5014" d="M243.98,116.771v5.857c-.238-.112-.46-.23-.674-.348v-5.509Z" transform="translate(-241.2 -114.141)" fill="#fb9800"/>
        <path id="Path_5015" data-name="Path 5015" d="M249.3,119.2V124.9c-.23-.072-.451-.151-.669-.23V119.2Z" transform="translate(-243.989 -115.412)" fill="#fb9800"/>
        <path id="Path_5016" data-name="Path 5016" d="M255.03,120.826v5.693c-.226-.052-.449-.1-.667-.164v-5.529Z" transform="translate(-246.988 -116.264)" fill="#fb9800"/>
        <path id="Path_5017" data-name="Path 5017" d="M260.253,122.385v5.469c-.226-.039-.448-.079-.667-.125v-5.344Z" transform="translate(-249.723 -117.08)" fill="#fb9800"/>
        <path id="Path_5018" data-name="Path 5018" d="M266.38,123.42v5.423c-.226-.033-.448-.059-.67-.092V123.42Z" transform="translate(-252.928 -117.622)" fill="#fb9800"/>
        <path id="Path_5019" data-name="Path 5019" d="M271.7,123.42v5.687l-.674-.059V123.42Z" transform="translate(-255.713 -117.622)" fill="#fb9800"/>
        <path id="Path_5020" data-name="Path 5020" d="M279.036,123.42v5.9c-.226-.007-.447-.02-.67-.026V123.42Z" transform="translate(-259.554 -117.622)" fill="#fb9800"/>
        <path id="Path_5021" data-name="Path 5021" d="M287.474,122.385v6.443c-.222,0-.445.007-.67.007v-6.449Z" transform="translate(-263.971 -117.08)" fill="#fb9800"/>
        <path id="Path_5022" data-name="Path 5022" d="M295.309,120.826v7.034c-.222.02-.444.033-.67.046v-7.08Z" transform="translate(-268.073 -116.264)" fill="#fb9800"/>
        <path id="Path_5023" data-name="Path 5023" d="M301.638,120.826V127.6c-.222.02-.444.046-.666.066v-6.843Z" transform="translate(-271.388 -116.264)" fill="#fb9800"/>
        <path id="Path_5024" data-name="Path 5024" d="M309.975,119.2v6.982c-.218.04-.445.079-.671.118v-7.1Z" transform="translate(-275.75 -115.412)" fill="#fb9800"/>
        <path id="Path_5025" data-name="Path 5025" d="M318.916,117.64v6.731c-.219.066-.441.132-.667.2V117.64Z" transform="translate(-280.433 -114.596)" fill="#fb9800"/>
        <path id="Path_5026" data-name="Path 5026" d="M326.047,113.845v7.278c-.214.1-.436.2-.67.3v-7.58Z" transform="translate(-284.164 -112.609)" fill="#fb9800"/>
        <path id="Path_5027" data-name="Path 5027" d="M331.069,111.252v6.955a7.4,7.4,0,0,1-.67.552v-7.507Z" transform="translate(-286.793 -111.252)" fill="#fb9800"/>
      </g>
      <path id="Path_5028" data-name="Path 5028" d="M282.48,116.607a7.487,7.487,0,0,1-.67.552,11.706,11.706,0,0,1-1.723,1.006c-.214.1-.436.2-.67.3a22.923,22.923,0,0,1-2.73.961l-.667.2c-1.106.3-2.3.565-3.591.8l-.671.118c-1.052.171-2.155.329-3.3.454-.222.02-.444.046-.666.066-.766.079-1.547.138-2.348.19-.222.02-.444.034-.67.047-1,.052-2.022.085-3.063.105-.222,0-.445.007-.67.007h-.478c-.973,0-1.929-.02-2.872-.052-.226-.007-.447-.02-.67-.027-.961-.046-1.9-.112-2.822-.191l-.674-.059c-.636-.059-1.255-.132-1.864-.2-.226-.033-.448-.059-.67-.092-.773-.1-1.528-.223-2.251-.355-.226-.039-.448-.079-.667-.125-.631-.118-1.236-.25-1.822-.394-.226-.053-.449-.105-.667-.164-.728-.184-1.413-.381-2.06-.6-.23-.072-.451-.151-.669-.23a17.472,17.472,0,0,1-1.865-.776c-.238-.111-.46-.23-.674-.348a8.741,8.741,0,0,1-1.432-.966,5.006,5.006,0,0,1-.674-.683,2.559,2.559,0,0,1-.621-1.591v3.327a2.559,2.559,0,0,0,.621,1.591,4.98,4.98,0,0,0,.674.683,8.682,8.682,0,0,0,1.432.967c.214.119.436.237.674.348a17.281,17.281,0,0,0,1.865.775c.218.079.44.158.669.23.648.217,1.333.415,2.06.6.218.06.441.111.667.164.585.145,1.19.277,1.822.395.219.046.441.086.667.125.723.132,1.478.251,2.251.355.222.033.445.06.67.092.609.072,1.228.144,1.864.2l.674.059c.92.079,1.861.145,2.822.191.223.007.445.02.67.026.943.033,1.9.053,2.872.053h.478c.225,0,.448-.007.67-.007,1.041-.02,2.065-.053,3.063-.105.226-.013.448-.027.67-.046.8-.052,1.581-.111,2.348-.191.222-.02.444-.046.666-.066,1.149-.124,2.252-.283,3.3-.454.226-.04.453-.079.671-.118,1.287-.23,2.485-.5,3.591-.8.226-.066.447-.132.667-.2a23.007,23.007,0,0,0,2.73-.96c.234-.1.456-.2.67-.3a11.707,11.707,0,0,0,1.723-1.006,7.41,7.41,0,0,0,.67-.552,2.883,2.883,0,0,0,1.053-2.057v-3.327A2.884,2.884,0,0,1,282.48,116.607Z" transform="translate(-237.583 -104.277)" fill="#e5d6d6" style="mix-blend-mode: multiply;isolation: isolate"/>
    </g>
    <g id="Group_8623" data-name="Group 8623" transform="translate(262.455 122.276)">
      <path id="Path_5029" data-name="Path 5029" d="M333.667,202.12c-.3.239-.593.466-.9.683-.253.184-.506.357-.767.518a18.668,18.668,0,0,1-1.747,1.013c-.282.15-.563.287-.849.418a19.791,19.791,0,0,1-3.675,1.253c-.331.089-.674.16-1.005.222a19.934,19.934,0,0,1-2.418.289,10.987,10.987,0,0,1-1.153.038,17.4,17.4,0,0,1-2.693-.163c-.466-.056-.919-.132-1.363-.224a19.383,19.383,0,0,1-3.119-.887,17.34,17.34,0,0,1-1.806-.777,19.96,19.96,0,0,1-6.822-5.458l-2.866-3.565,31.4-25.239,2.865,3.565a20,20,0,0,1,4.02,8.541,16.152,16.152,0,0,1,.294,1.837,19.028,19.028,0,0,1,.091,3.3c-.015.443-.059.889-.111,1.333a20.387,20.387,0,0,1-1.008,4.33c-.118.327-.24.662-.379.988a19.752,19.752,0,0,1-1.948,3.61c-.18.263-.361.524-.556.78a18.884,18.884,0,0,1-2.028,2.295c-.214.221-.437.429-.671.637Q334.068,201.8,333.667,202.12Z" transform="translate(-298.044 -162.717)" fill="#c57c00"/>
      <g id="Group_8622" data-name="Group 8622" transform="translate(10.573 15.674)">
        <path id="Path_5030" data-name="Path 5030" d="M361.324,233.7c-.253.184-.506.357-.767.518l-3.524-4.383.719-.578Z" transform="translate(-337.173 -209.284)" fill="#9d6500"/>
        <path id="Path_5031" data-name="Path 5031" d="M355.074,235.694c-.282.15-.563.287-.849.418l-4.33-5.387.72-.578Z" transform="translate(-333.435 -209.752)" fill="#9d6500"/>
        <path id="Path_5032" data-name="Path 5032" d="M345.481,239.077c-.331.089-.674.16-1.005.222l-4.264-5.305.719-.578Z" transform="translate(-328.366 -211.463)" fill="#9d6500"/>
        <path id="Path_5033" data-name="Path 5033" d="M337.956,239.726a10.988,10.988,0,0,1-1.153.038l-4.427-5.507.719-.578Z" transform="translate(-324.265 -211.601)" fill="#9d6500"/>
        <path id="Path_5034" data-name="Path 5034" d="M329.964,239.562c-.466-.056-.919-.132-1.363-.224l-4.145-5.157.719-.577Z" transform="translate(-320.118 -211.562)" fill="#9d6500"/>
        <path id="Path_5035" data-name="Path 5035" d="M320.716,237.426a17.338,17.338,0,0,1-1.806-.777l-3.558-4.426.718-.577Z" transform="translate(-315.352 -210.537)" fill="#9d6500"/>
        <path id="Path_5036" data-name="Path 5036" d="M365.385,229.9l-3.814-4.746.719-.577,3.766,4.687C365.843,229.487,365.62,229.7,365.385,229.9Z" transform="translate(-339.548 -206.838)" fill="#9d6500"/>
        <path id="Path_5037" data-name="Path 5037" d="M370.98,223.666l-3.878-4.824.719-.578,3.715,4.622C371.356,223.149,371.175,223.411,370.98,223.666Z" transform="translate(-342.443 -203.532)" fill="#9d6500"/>
        <path id="Path_5038" data-name="Path 5038" d="M376.226,214.446l-3.886-4.835.713-.573,3.553,4.419C376.488,213.786,376.365,214.121,376.226,214.446Z" transform="translate(-345.185 -198.702)" fill="#9d6500"/>
        <path id="Path_5039" data-name="Path 5039" d="M378.654,202.679l-4.327-5.382.719-.578,3.719,4.627C378.75,201.789,378.706,202.234,378.654,202.679Z" transform="translate(-346.226 -192.252)" fill="#9d6500"/>
        <path id="Path_5040" data-name="Path 5040" d="M378.845,193.139l-4.192-5.216.719-.578,3.18,3.956A16.159,16.159,0,0,1,378.845,193.139Z" transform="translate(-346.396 -187.345)" fill="#9d6500"/>
      </g>
      <path id="Path_5041" data-name="Path 5041" d="M325.924,190.29A20.141,20.141,0,1,1,329,161.974,20.14,20.14,0,0,1,325.924,190.29Z" transform="translate(-293.163 -154.451)" fill="#ffc400"/>
      <path id="Path_5042" data-name="Path 5042" d="M327.54,191.383a16.718,16.718,0,1,1,2.557-23.5A16.717,16.717,0,0,1,327.54,191.383Z" transform="translate(-296.925 -158.211)" fill="#ffac00"/>
      <path id="Path_5043" data-name="Path 5043" d="M306,189.044a16.714,16.714,0,0,1,13.85-27.169,16.715,16.715,0,1,0-3.6,33.176A16.654,16.654,0,0,1,306,189.044Z" transform="translate(-296.925 -158.215)" fill="#bb6a00"/>
    </g>
    <g id="Group_8625" data-name="Group 8625" transform="translate(244.1 129.11)">
      <path id="Path_5044" data-name="Path 5044" d="M321.627,188.935c0,.381-.009.755-.031,1.128-.015.313-.038.618-.077.922a18.782,18.782,0,0,1-.3,2c-.061.314-.129.618-.206.923a19.8,19.8,0,0,1-1.326,3.65c-.137.313-.3.625-.456.922a20.017,20.017,0,0,1-1.289,2.066,11.206,11.206,0,0,1-.693.922,17.332,17.332,0,0,1-1.814,2c-.336.327-.679.633-1.029.922a19.263,19.263,0,0,1-2.645,1.875,17.122,17.122,0,0,1-1.737.922,19.963,19.963,0,0,1-8.528,1.9h-4.573V168.792h4.573a20.005,20.005,0,0,1,9.176,2.218,16.217,16.217,0,0,1,1.615.922,19.069,19.069,0,0,1,2.63,2c.335.289.656.6.968.922a20.323,20.323,0,0,1,2.744,3.5c.182.3.365.6.533.915a19.756,19.756,0,0,1,1.593,3.78c.091.3.182.609.259.922a18.867,18.867,0,0,1,.518,3.018c.039.3.061.61.076.922C321.618,188.25,321.627,188.593,321.627,188.935Z" transform="translate(-276.774 -168.792)" fill="#c57c00"/>
      <g id="Group_8624" data-name="Group 8624" transform="translate(27.567 2.218)">
        <path id="Path_5045" data-name="Path 5045" d="M342.445,213.434c-.015.313-.038.618-.077.922h-5.624v-.922Z" transform="translate(-325.19 -194.38)" fill="#9d6500"/>
        <path id="Path_5046" data-name="Path 5046" d="M340.087,219.558c-.061.314-.129.618-.206.923h-6.913v-.923Z" transform="translate(-323.214 -197.586)" fill="#9d6500"/>
        <path id="Path_5047" data-name="Path 5047" d="M336.713,229.156c-.137.313-.3.625-.456.922H329.45v-.922Z" transform="translate(-321.371 -202.611)" fill="#9d6500"/>
        <path id="Path_5048" data-name="Path 5048" d="M332.506,235.426a11.2,11.2,0,0,1-.693.922h-7.065v-.922Z" transform="translate(-318.909 -205.893)" fill="#9d6500"/>
        <path id="Path_5049" data-name="Path 5049" d="M327.37,241.553c-.336.327-.679.633-1.029.922h-6.615v-.922Z" transform="translate(-316.281 -209.101)" fill="#9d6500"/>
        <path id="Path_5050" data-name="Path 5050" d="M319.911,247.423a17.119,17.119,0,0,1-1.737.922H312.5v-.922Z" transform="translate(-312.496 -212.174)" fill="#9d6500"/>
        <path id="Path_5051" data-name="Path 5051" d="M342.033,207.893h-6.089v-.922h6.013C342,207.276,342.018,207.581,342.033,207.893Z" transform="translate(-324.771 -190.997)" fill="#9d6500"/>
        <path id="Path_5052" data-name="Path 5052" d="M340.677,199.625h-6.189V198.7h5.93C340.509,199.008,340.6,199.312,340.677,199.625Z" transform="translate(-324.009 -186.669)" fill="#9d6500"/>
        <path id="Path_5053" data-name="Path 5053" d="M336.773,189.765h-6.2v-.915h5.671C336.422,189.147,336.606,189.452,336.773,189.765Z" transform="translate(-321.958 -181.511)" fill="#9d6500"/>
        <path id="Path_5054" data-name="Path 5054" d="M329.126,180.5h-6.9v-.922h5.937C328.493,179.863,328.814,180.176,329.126,180.5Z" transform="translate(-317.587 -176.655)" fill="#9d6500"/>
        <path id="Path_5055" data-name="Path 5055" d="M321.811,174.369H315.12v-.922H320.2A16.213,16.213,0,0,1,321.811,174.369Z" transform="translate(-313.87 -173.447)" fill="#9d6500"/>
      </g>
      <path id="Path_5056" data-name="Path 5056" d="M294.924,188.937a20.141,20.141,0,1,1-20.141-20.14A20.14,20.14,0,0,1,294.924,188.937Z" transform="translate(-254.642 -168.795)" fill="#ffc400"/>
      <path id="Path_5057" data-name="Path 5057" d="M295.262,192.7a16.718,16.718,0,1,1-16.717-16.717A16.717,16.717,0,0,1,295.262,192.7Z" transform="translate(-258.403 -172.555)" fill="#ffac00"/>
      <path id="Path_5058" data-name="Path 5058" d="M279.941,212.657a16.715,16.715,0,0,1-12.5-27.816,16.715,16.715,0,1,0,23.6,23.594A16.649,16.649,0,0,1,279.941,212.657Z" transform="translate(-258.403 -177.194)" fill="#bb6a00"/>
    </g>
  </g>
</svg>
