<svg xmlns="http://www.w3.org/2000/svg" width="16.285" height="17.127" viewBox="0 0 16.285 17.127">
  <g id="cricket" transform="translate(-0.07 -0.001)">
    <path id="Path_123" data-name="Path 123" d="M2.441,100.344V87.6a1.185,1.185,0,1,0-2.371,0v12.744a.3.3,0,0,0,.3.3H2.145a.3.3,0,0,0,.3-.3Zm0,0" transform="translate(0 -83.512)" fill="#fff"/>
    <path id="Path_124" data-name="Path 124" d="M71.284,15.793h1.778a.593.593,0,0,1,.593.593v1.186a.593.593,0,0,1-.593.593H71.284a.593.593,0,0,1-.593-.593V16.386A.593.593,0,0,1,71.284,15.793Zm0,0" transform="translate(-68.25 -15.262)" fill="#fff"/>
    <path id="Path_125" data-name="Path 125" d="M17.727,34.042a.594.594,0,0,0,.593.593h.889V33.449h-.889a.6.6,0,0,0-.593.593Zm0,0" transform="translate(-17.064 -32.325)" fill="#fff"/>
    <path id="Path_126" data-name="Path 126" d="M168.682,33.449h-.889v1.186h.889a.593.593,0,0,0,0-1.186Zm0,0" transform="translate(-162.091 -32.325)" fill="#fff"/>
    <path id="Path_127" data-name="Path 127" d="M291.419.336,293.1.012a.593.593,0,0,1,.694.47l.225,1.164a.593.593,0,0,1-.47.694l-1.68.324a.593.593,0,0,1-.694-.47l-.225-1.164a.593.593,0,0,1,.47-.694Zm0,0" transform="translate(-281.103 0)" fill="#fff"/>
    <path id="Path_128" data-name="Path 128" d="M241.387,32.943a.58.58,0,0,0-.092.443.594.594,0,0,0,.694.47l.873-.168-.225-1.164-.873.169a.58.58,0,0,0-.377.251Zm0,0" transform="translate(-233.115 -31.43)" fill="#fff"/>
    <path id="Path_129" data-name="Path 129" d="M386.715,8.306a.593.593,0,0,0-.225-1.164l-.873.169.225,1.164Zm0,0" transform="translate(-372.603 -6.892)" fill="#fff"/>
    <path id="Path_130" data-name="Path 130" d="M299.188,180.012l-.21.21a.3.3,0,1,0,.419.419l.21-.21a.3.3,0,1,0-.419-.419Zm0,0" transform="translate(-288.785 -173.88)" fill="#fff"/>
    <path id="Path_131" data-name="Path 131" d="M249.282,229.919l-.21.21a.3.3,0,1,0,.419.419l.21-.21a.3.3,0,1,0-.419-.419Zm0,0" transform="translate(-240.556 -222.111)" fill="#fff"/>
    <path id="Path_132" data-name="Path 132" d="M274.323,205.68a.3.3,0,0,0,.209-.087l.21-.21a.3.3,0,1,0-.419-.419l-.21.21a.3.3,0,0,0,.21.506Zm0,0" transform="translate(-264.759 -197.995)" fill="#fff"/>
    <path id="Path_133" data-name="Path 133" d="M274.25,255.1l-.21.21a.3.3,0,1,0,.419.419l.209-.21a.3.3,0,0,0-.419-.419Zm0,0" transform="translate(-264.686 -246.452)" fill="#fff"/>
    <path id="Path_134" data-name="Path 134" d="M299.2,229.937l-.21.21a.3.3,0,1,0,.419.419l.21-.21a.3.3,0,1,0-.419-.419Zm0,0" transform="translate(-288.799 -222.129)" fill="#fff"/>
    <path id="Path_135" data-name="Path 135" d="M324.156,205.135l-.209.21a.3.3,0,1,0,.419.419l.21-.21a.3.3,0,0,0-.419-.419Zm0,0" transform="translate(-312.916 -198.165)" fill="#fff"/>
    <path id="Path_136" data-name="Path 136" d="M169.148,87.288a1.185,1.185,0,0,0-1.526.693l-1,2.653a2.962,2.962,0,0,0-5.011-1.574,3,3,0,0,0-.275.322V87.6a1.185,1.185,0,1,0-2.371,0v12.744a.3.3,0,0,0,.3.3h1.778a.3.3,0,0,0,.3-.3V92.929a3,3,0,0,0,.275.322,2.961,2.961,0,0,0,3.944.219l-2.546,6.768a.3.3,0,0,0,.277.4h1.9a.3.3,0,0,0,.277-.192l4.373-11.63a1.159,1.159,0,0,0,.077-.421,1.186,1.186,0,0,0-.768-1.108Zm-3.765,5.544a2.369,2.369,0,0,1-2.622.5.295.295,0,0,0-.476-.334l-.032.032a2.163,2.163,0,0,1-.419-.419l.032-.032a.295.295,0,0,0-.334-.476,2.371,2.371,0,0,1,3.1-3.128l-.041.042a.3.3,0,1,0,.419.419l.149-.149a2.159,2.159,0,0,1,.419.419l-.149.149a.3.3,0,1,0,.419.419l.041-.042a2.372,2.372,0,0,1-.507,2.6Zm0,0" transform="translate(-153.56 -83.512)" fill="#fff"/>
  </g>
</svg>
