<svg xmlns="http://www.w3.org/2000/svg" xmlns:xlink="http://www.w3.org/1999/xlink" width="275.169" height="186.414" viewBox="0 0 275.169 186.414">
  <defs>
    <linearGradient id="linear-gradient" x1="0.5" y1="1" x2="0.5" gradientUnits="objectBoundingBox">
      <stop offset="0" stop-color="gray" stop-opacity="0.251"/>
      <stop offset="0.54" stop-color="gray" stop-opacity="0.122"/>
      <stop offset="1" stop-color="gray" stop-opacity="0.102"/>
    </linearGradient>
    <linearGradient id="linear-gradient-4" x1="0.5" y1="1" x2="0.5" y2="0" xlink:href="#linear-gradient"/>
    <linearGradient id="linear-gradient-12" x1="0" y1="0.5" x2="1" y2="0.5" xlink:href="#linear-gradient"/>
  </defs>
  <g id="Group_8721" data-name="Group 8721" transform="translate(0.002 -0.004)">
    <path id="Path_4882" data-name="Path 4882" d="M182.69,93.722c-16.91-.027-33.2-5.28-48.792-11.127S102.845,70.229,86.241,67.432c-10.692-1.8-22.818-1.677-31.145,4.709-8.012,6.145-10.306,16.344-11.4,25.777-.824,7.091-1.193,14.539,1.985,21.037,2.209,4.513,5.975,8.235,8.641,12.539,9.275,14.969,3.771,34.02-5.161,49.285-4.192,7.147-9.1,14.007-12.264,21.578s-4.442,16.164-1.176,23.656c3.242,7.429,10.532,12.845,18.33,16.541,15.865,7.533,34.3,9.19,52.245,9.863,39.726,1.492,79.512-1.166,119.194-3.839,14.685-.987,29.435-1.983,43.81-4.93,7.983-1.635,16.2-4.073,21.846-9.458,7.168-6.833,8.607-18.023,3.356-26.084-8.811-13.533-31.935-16.147-38.277-30.771-3.492-8.051-.527-17.253,3.854-24.995,9.4-16.594,25.622-31.437,25.843-50.031.151-12.772-8.342-25.255-20.988-30.844-13.258-5.866-31.3-4.423-40.54,6.386C214.873,88.981,197.622,93.747,182.69,93.722Z" transform="translate(-33.81 -66.43)" fill="#30b847" opacity="0.1"/>
    <path id="Path_4883" data-name="Path 4883" d="M974.126,689.09s-2.987-1.971-5.946-.569c0,0,.911,1.757,4.658,1.589Z" transform="translate(-741.129 -536.968)" fill="#6c63ff"/>
    <path id="Path_4884" data-name="Path 4884" d="M988,692.87s.909,3.46-1.368,5.815c0,0-1.37-1.429,0-4.923Z" transform="translate(-754.637 -540.642)" fill="#6c63ff"/>
    <path id="Path_4885" data-name="Path 4885" d="M988.1,672.45s-.221-2.945-6.865-1.968a3.172,3.172,0,0,0,2.3,2.8A3.834,3.834,0,0,0,988.1,672.45Z" transform="translate(-751.016 -523.543)" fill="#6c63ff"/>
    <path id="Path_4886" data-name="Path 4886" d="M1005.109,679.11s2.812.9.306,7.137a3.183,3.183,0,0,1-2.187-2.894A3.83,3.83,0,0,1,1005.109,679.11Z" transform="translate(-767.612 -530.225)" fill="#6c63ff"/>
    <path id="Path_4887" data-name="Path 4887" d="M1006.651,648.283s.379-4.843-6.413-4.345c0,0-.486,4.374,5.212,5.509Z" transform="translate(-765.389 -503.573)" fill="#6c63ff"/>
    <path id="Path_4888" data-name="Path 4888" d="M1021.08,626.483s-.933-5.487-7.72-3.852c0,0-.027,4.746,6.61,5.161Z" transform="translate(-775.331 -487.241)" fill="#6c63ff"/>
    <path id="Path_4889" data-name="Path 4889" d="M1032.814,603.572s-1.558-5.346-8.284-3.745c0,0,1.6,4.807,7.837,4.734Z" transform="translate(-783.786 -469.982)" fill="#6c63ff"/>
    <path id="Path_4890" data-name="Path 4890" d="M1046.459,580.383s-1.524-5.548-8.019-3.888c0,0,2.168,5.271,7.591,4.828Z" transform="translate(-794.316 -452.311)" fill="#6c63ff"/>
    <path id="Path_4891" data-name="Path 4891" d="M1057.219,554.754s-1.171-6.775-7.219-5.283c0,0,1.759,6.172,6.78,6.269Z" transform="translate(-803.067 -431.926)" fill="#6c63ff"/>
    <path id="Path_4892" data-name="Path 4892" d="M1063.983,529.549s-1.4-6.841-7.533-4.86c0,0,2.4,6.461,7.1,5.793Z" transform="translate(-807.95 -413.056)" fill="#6c63ff"/>
    <path id="Path_4893" data-name="Path 4893" d="M1070.539,500.8s-2.233-6.838-6.969-6.653c0,0,2.284,7.224,6.561,8.019Z" transform="translate(-813.34 -390.207)" fill="#6c63ff"/>
    <path id="Path_4894" data-name="Path 4894" d="M1075.724,474.09s-2.43-8.233-6.284-7.6c0,0,1.682,6.294,6.148,8.879Z" transform="translate(-817.783 -369.247)" fill="#30b847"/>
    <path id="Path_4895" data-name="Path 4895" d="M1078.075,447.364S1075.8,440.5,1072,440.23c0,0,1.55,6.751,6,8.916Z" transform="translate(-819.721 -349.393)" fill="#30b847"/>
    <path id="Path_4896" data-name="Path 4896" d="M1082.276,421.383s-2.841-6.87-5.346-7.023c0,0,1.232,6.76,5.1,8.15Z" transform="translate(-823.453 -329.81)" fill="#30b847"/>
    <path id="Path_4897" data-name="Path 4897" d="M1086.957,393.577s-1.754-7.47-4.257-8.077c0,0,.345,6.1,4.007,8.634Z" transform="translate(-827.821 -307.963)" fill="#30b847"/>
    <path id="Path_4898" data-name="Path 4898" d="M1092.051,365.31s-1.837-5.944-3.871-6.85c0,0,.4,7.008,3.4,8.306Z" transform="translate(-831.969 -287.493)" fill="#30b847"/>
    <path id="Path_4899" data-name="Path 4899" d="M1102.586,332.923l.372-10.483s-3.8,7.91-.651,12.332Z" transform="translate(-841.719 -260.226)" fill="#30b847"/>
    <path id="Path_4900" data-name="Path 4900" d="M1114.821,297.532s2.736-7.657,3.4-8.082c0,0-5.37,4.964-4.845,11.355Z" transform="translate(-851.017 -235.253)" fill="#30b847"/>
    <path id="Path_4901" data-name="Path 4901" d="M1023.991,661.742s4.816-.632,4.67,6.177c0,0-4.352.707-5.771-4.921Z" transform="translate(-782.545 -517.066)" fill="#6c63ff"/>
    <path id="Path_4902" data-name="Path 4902" d="M1042.6,638.68s5.567-.019,5.1,6.95c0,0-4.67.833-6.214-5.635Z" transform="translate(-796.625 -499.62)" fill="#6c63ff"/>
    <path id="Path_4903" data-name="Path 4903" d="M1057.455,616.593s5.052-2.369,8.286,3.745c0,0-4.668,1.976-8.731-2.758Z" transform="translate(-808.374 -482.558)" fill="#6c63ff"/>
    <path id="Path_4904" data-name="Path 4904" d="M1070.578,592.023s5.171-2.522,8.209,3.453c0,0-5.387,1.856-8.636-2.508Z" transform="translate(-818.321 -463.901)" fill="#30b847"/>
    <path id="Path_4905" data-name="Path 4905" d="M1078.721,565.947s4.979-4.756,8.952.056c0,0-5.086,3.912-9.183,1Z" transform="translate(-824.634 -442.973)" fill="#30b847"/>
    <path id="Path_4906" data-name="Path 4906" d="M1085.737,538.613s5.011-4.86,8.952.224c0,0-5.623,3.992-9.129.8Z" transform="translate(-829.986 -422.283)" fill="#30b847"/>
    <path id="Path_4907" data-name="Path 4907" d="M1090.15,505.43s3.859-6.075,8.4-4.717c0,0-4,6.432-8.357,6.146Z" transform="translate(-833.461 -395.029)" fill="#30b847"/>
    <path id="Path_4908" data-name="Path 4908" d="M1094.52,477.542s3.888-7.652,7.565-6.318c0,0-2.8,5.881-7.664,7.608Z" transform="translate(-836.693 -372.737)" fill="#30b847"/>
    <path id="Path_4909" data-name="Path 4909" d="M1094.726,451.334s4-6.022,7.742-5.288c0,0-3.266,6.107-8.128,7.03Z" transform="translate(-836.633 -353.75)" fill="#30b847"/>
    <path id="Path_4910" data-name="Path 4910" d="M1097.19,421.466s3.1-6.755,5.616-6.816c0,0-1.487,6.712-5.409,7.953Z" transform="translate(-838.79 -330.029)" fill="#30b847"/>
    <path id="Path_4911" data-name="Path 4911" d="M1099.71,396.775s3.443-6.843,6.031-6.855c0,0-1.762,5.849-5.915,7.458Z" transform="translate(-840.698 -311.309)" fill="#30b847"/>
    <path id="Path_4912" data-name="Path 4912" d="M1101.85,368.743s2.576-5.662,4.707-6.3c0,0-1.288,6.9-4.425,7.805Z" transform="translate(-842.318 -290.506)" fill="#30b847"/>
    <path id="Path_4913" data-name="Path 4913" d="M1105.991,337.447l5.754-8.767s-1.473,8.648-6.6,10.449Z" transform="translate(-844.816 -264.95)" fill="#30b847"/>
    <path id="Path_4914" data-name="Path 4914" d="M1116.18,308.9s6.69-4.617,6.93-5.365c0,0-3.4,6.469-9.72,7.611Z" transform="translate(-851.053 -245.911)" fill="#30b847"/>
    <path id="Path_4915" data-name="Path 4915" d="M1125.935,294.085s7.681-7.385,9.642-7.375a12.54,12.54,0,0,0-9.827,6.981Z" transform="translate(-860.41 -233.179)" fill="#30b847"/>
    <path id="Path_4916" data-name="Path 4916" d="M1102.15,333.6l.279.036c1.443-11.3,3.548-17.982,5.927-18.8l-.092-.265C1105.744,315.445,1103.63,322.025,1102.15,333.6Z" transform="translate(-842.545 -254.269)" fill="#444053"/>
    <path id="Path_4917" data-name="Path 4917" d="M1093.42,417.293l.423.036c.088-1.055.156-2.136.2-3.21.4-9.353,1.03-17.938,1.852-24.375l-.243-.3c-.824,6.449-1.626,15.3-2.029,24.66C1093.576,415.169,1093.508,416.243,1093.42,417.293Z" transform="translate(-835.936 -310.945)" fill="#444053"/>
    <path id="Path_4918" data-name="Path 4918" d="M959.486,552.663a55.036,55.036,0,0,0,15.243-11.285,61.338,61.338,0,0,0,11.142-15.795,71.66,71.66,0,0,0,6.478-24.893l-.44.207c-1.64,19.486-10.512,32.805-17.569,40.056a54.351,54.351,0,0,1-15.081,11.178Z" transform="translate(-734.377 -395.161)" fill="#444053"/>
    <path id="Path_4919" data-name="Path 4919" d="M348.654,115.31H115.16a2.08,2.08,0,0,0-2.08,2.08v6.06H350.734v-6.06A2.08,2.08,0,0,0,348.654,115.31Z" transform="translate(-93.819 -103.429)" fill="#30b847"/>
    <path id="Path_4920" data-name="Path 4920" d="M113.08,148.81V285.191a4.194,4.194,0,0,0,4.194,4.194H346.54a4.194,4.194,0,0,0,4.194-4.194V148.81Z" transform="translate(-93.819 -128.788)" fill="#fff"/>
    <circle id="Ellipse_398" data-name="Ellipse 398" cx="0.972" cy="0.972" r="0.972" transform="translate(22.056 14.916)" fill="#fa5959" opacity="0.8"/>
    <circle id="Ellipse_399" data-name="Ellipse 399" cx="0.972" cy="0.972" r="0.972" transform="translate(24.729 14.916)" fill="#fed253" opacity="0.8"/>
    <circle id="Ellipse_400" data-name="Ellipse 400" cx="0.972" cy="0.972" r="0.972" transform="translate(27.402 14.916)" fill="#8ccf4d" opacity="0.8"/>
    <g id="Group_8719" data-name="Group 8719" transform="translate(28.374 28.281)" opacity="0.3">
      <rect id="Rectangle_3220" data-name="Rectangle 3220" width="219.672" height="123.93" fill="none" stroke="#3f3d56" stroke-miterlimit="10" stroke-width="1"/>
      <rect id="Rectangle_3221" data-name="Rectangle 3221" width="162.324" height="123.93" transform="translate(28.674)" fill="none" stroke="#3f3d56" stroke-miterlimit="10" stroke-width="1"/>
      <rect id="Rectangle_3222" data-name="Rectangle 3222" width="104.976" height="123.93" transform="translate(57.348)" fill="none" stroke="#3f3d56" stroke-miterlimit="10" stroke-width="1"/>
      <rect id="Rectangle_3223" data-name="Rectangle 3223" width="47.628" height="123.93" transform="translate(86.022)" fill="none" stroke="#3f3d56" stroke-miterlimit="10" stroke-width="1"/>
      <line id="Line_270" data-name="Line 270" y2="123.93" transform="translate(109.836)" fill="none" stroke="#3f3d56" stroke-miterlimit="10" stroke-width="1"/>
      <rect id="Rectangle_3224" data-name="Rectangle 3224" width="219.672" height="87.966" transform="translate(0 17.982)" fill="none" stroke="#3f3d56" stroke-miterlimit="10" stroke-width="1"/>
      <rect id="Rectangle_3225" data-name="Rectangle 3225" width="219.672" height="52.488" transform="translate(0 35.721)" fill="none" stroke="#3f3d56" stroke-miterlimit="10" stroke-width="1"/>
      <rect id="Rectangle_3226" data-name="Rectangle 3226" width="219.672" height="17.01" transform="translate(0 53.46)" fill="none" stroke="#3f3d56" stroke-miterlimit="10" stroke-width="1"/>
    </g>
    <rect id="Rectangle_3227" data-name="Rectangle 3227" width="17.253" height="6.318" transform="translate(62.758 35.207)" fill="#3f3d56" opacity="0.1"/>
    <rect id="Rectangle_3228" data-name="Rectangle 3228" width="12.879" height="6.318" transform="translate(35.785 52.46)" fill="#3f3d56" opacity="0.1"/>
    <rect id="Rectangle_3229" data-name="Rectangle 3229" width="17.253" height="6.318" transform="translate(90.703 35.207)" fill="#3f3d56" opacity="0.1"/>
    <rect id="Rectangle_3230" data-name="Rectangle 3230" width="17.253" height="6.318" transform="translate(116.947 35.207)" fill="#3f3d56" opacity="0.1"/>
    <rect id="Rectangle_3231" data-name="Rectangle 3231" width="17.253" height="6.318" transform="translate(141.247 35.207)" fill="#3f3d56" opacity="0.1"/>
    <rect id="Rectangle_3232" data-name="Rectangle 3232" width="17.253" height="6.318" transform="translate(168.463 35.207)" fill="#3f3d56" opacity="0.1"/>
    <rect id="Rectangle_3233" data-name="Rectangle 3233" width="17.253" height="6.318" transform="translate(196.165 35.207)" fill="#3f3d56" opacity="0.1"/>
    <rect id="Rectangle_3234" data-name="Rectangle 3234" width="17.253" height="6.318" transform="translate(225.568 35.207)" fill="#3f3d56" opacity="0.1"/>
    <rect id="Rectangle_3235" data-name="Rectangle 3235" width="11.21" height="10.852" transform="translate(96.905 69.458)" fill="url(#linear-gradient)"/>
    <rect id="Rectangle_3236" data-name="Rectangle 3236" width="10.823" height="10.478" transform="translate(97.099 69.645)" fill="#30b847"/>
    <rect id="Rectangle_3237" data-name="Rectangle 3237" width="11.21" height="10.852" transform="translate(119.999 67.105)" fill="url(#linear-gradient)"/>
    <rect id="Rectangle_3238" data-name="Rectangle 3238" width="10.823" height="10.478" transform="translate(120.194 67.293)" fill="#ff9f00"/>
    <rect id="Rectangle_3239" data-name="Rectangle 3239" width="11.21" height="10.852" transform="translate(164.468 104.041)" fill="url(#linear-gradient)"/>
    <rect id="Rectangle_3240" data-name="Rectangle 3240" width="10.823" height="10.478" transform="translate(164.663 104.229)" fill="#ff9f00"/>
    <rect id="Rectangle_3241" data-name="Rectangle 3241" width="11.21" height="10.852" transform="translate(65.747 50.117)" fill="url(#linear-gradient-4)"/>
    <rect id="Rectangle_3242" data-name="Rectangle 3242" width="10.823" height="10.478" transform="translate(65.939 50.304)" fill="#ff9f00"/>
    <rect id="Rectangle_3243" data-name="Rectangle 3243" width="11.21" height="10.852" transform="translate(88.02 65.669)" fill="url(#linear-gradient-4)"/>
    <rect id="Rectangle_3244" data-name="Rectangle 3244" width="10.823" height="10.478" transform="translate(88.212 65.856)" fill="#ff69b4"/>
    <rect id="Rectangle_3245" data-name="Rectangle 3245" width="11.21" height="10.852" transform="translate(177.581 103.964)" fill="url(#linear-gradient)"/>
    <rect id="Rectangle_3246" data-name="Rectangle 3246" width="10.823" height="10.478" transform="translate(177.775 104.151)" fill="#30b847"/>
    <rect id="Rectangle_3247" data-name="Rectangle 3247" width="11.21" height="10.852" transform="translate(197.264 50.261)" fill="url(#linear-gradient)"/>
    <rect id="Rectangle_3248" data-name="Rectangle 3248" width="10.823" height="10.478" transform="translate(197.458 50.448)" fill="#30b847"/>
    <rect id="Rectangle_3249" data-name="Rectangle 3249" width="11.21" height="10.852" transform="translate(196.049 84.767)" fill="url(#linear-gradient)"/>
    <rect id="Rectangle_3250" data-name="Rectangle 3250" width="10.823" height="10.478" transform="translate(196.243 84.954)" fill="#30b847"/>
    <rect id="Rectangle_3251" data-name="Rectangle 3251" width="11.21" height="10.852" transform="translate(204.554 87.197)" fill="url(#linear-gradient)"/>
    <rect id="Rectangle_3252" data-name="Rectangle 3252" width="10.823" height="10.478" transform="translate(204.748 87.384)" fill="#30b847"/>
    <rect id="Rectangle_3253" data-name="Rectangle 3253" width="11.21" height="10.852" transform="translate(168.697 100.175)" fill="url(#linear-gradient-4)"/>
    <rect id="Rectangle_3254" data-name="Rectangle 3254" width="10.823" height="10.478" transform="translate(168.888 100.362)" fill="#ff69b4"/>
    <rect id="Rectangle_3255" data-name="Rectangle 3255" width="11.21" height="10.852" transform="translate(169.912 67.37)" fill="url(#linear-gradient-4)"/>
    <rect id="Rectangle_3256" data-name="Rectangle 3256" width="10.823" height="10.478" transform="translate(170.103 67.557)" fill="#ff69b4"/>
    <rect id="Rectangle_3257" data-name="Rectangle 3257" width="12.879" height="6.318" transform="translate(35.785 69.47)" fill="#3f3d56" opacity="0.1"/>
    <rect id="Rectangle_3258" data-name="Rectangle 3258" width="12.879" height="6.318" transform="translate(35.785 87.209)" fill="#3f3d56" opacity="0.1"/>
    <rect id="Rectangle_3259" data-name="Rectangle 3259" width="12.879" height="6.318" transform="translate(35.785 104.948)" fill="#3f3d56" opacity="0.1"/>
    <rect id="Rectangle_3260" data-name="Rectangle 3260" width="12.879" height="6.318" transform="translate(35.785 122.687)" fill="#3f3d56" opacity="0.1"/>
    <rect id="Rectangle_3261" data-name="Rectangle 3261" width="12.879" height="6.318" transform="translate(35.785 140.426)" fill="#3f3d56" opacity="0.1"/>
    <path id="Path_4921" data-name="Path 4921" d="M175.76,355.6c.36-.228.216-.841-.153-1.052a1.8,1.8,0,0,0-1.244-.058.508.508,0,0,0-.267-.535v-.092a.665.665,0,0,0-.146-.943,1.9,1.9,0,0,0-1.157-.2,1.541,1.541,0,0,0-.486-1.312.406.406,0,0,0-.267-.129c-.243,0-.311.311-.328.542a10.261,10.261,0,0,1-.3,1.8l-7.552,12.636c-.841,1.215,1.771-2.43.931-1.2a10.692,10.692,0,0,1-1.487,1.844,7.329,7.329,0,0,1-1.679,1.125,1.981,1.981,0,0,1-1.147-.326,4.617,4.617,0,0,1-1.1-1.091,21.533,21.533,0,0,1-1.781-2.646,3.429,3.429,0,0,1-.408-.945,8.722,8.722,0,0,0-.207-1.587,2.593,2.593,0,0,0-.326-.515l-.522-.693v-.032a3.934,3.934,0,0,0-1.669-2.493,4.5,4.5,0,0,0-2.25-1.293c-.467-.061-.945.029-1.412-.029-.382-.049-.744-.192-1.123-.255a4.763,4.763,0,0,0-1.1-.022l-.156-.143a4.354,4.354,0,0,0,1.966-1.652c.36-.581.556-1.251.889-1.849.406-.729,1.008-1.332,1.458-2.031a7.506,7.506,0,0,0,.846-5.73,13.862,13.862,0,0,0-2.673-5.259,10.356,10.356,0,0,0-9.929-3.548q-.364.058-.729.138a9.363,9.363,0,0,0-1.805.576,4.617,4.617,0,0,0-1.971,1.538,3.548,3.548,0,0,0-.343.637,3.746,3.746,0,0,0-.165.525,5.446,5.446,0,0,0-.09,1.643c.015.187.034.374.056.561l.036.282c.024.187.051.374.078.561.039.282.075.564.1.841a5.343,5.343,0,0,1,.032.591v.148a2.413,2.413,0,0,1-.066.435,1.819,1.819,0,0,1-.073.231,2.877,2.877,0,0,1-.343.629,7.95,7.95,0,0,1-.615.756l-.211.243c-.07.08-.139.163-.209.243a8.908,8.908,0,0,0-.761,1.028,5.008,5.008,0,0,0-.3.564,4.034,4.034,0,0,0-.173.452,3.74,3.74,0,0,0-.131.632.6.6,0,0,1-.015.16v.318a2.792,2.792,0,0,0,.034.316,2.245,2.245,0,0,0,.073.306,2.078,2.078,0,0,0,.114.3c0,.027.024.053.039.08l.039.08c.027.053.053.1.078.158a1.035,1.035,0,0,1,.08.243v.177a.994.994,0,0,1-.36.62c-.049.046-.1.087-.148.131l-.078.063L133,352.2l-.151.122a3.056,3.056,0,0,0-.367.365,13.576,13.576,0,0,0-4.068.4,5.5,5.5,0,0,1-1.458.265.729.729,0,0,1-.632-.265.931.931,0,0,1-.066-.583,5.03,5.03,0,0,0-.389-2.381,1.324,1.324,0,0,0-.389-.566.549.549,0,0,0-.646-.034,6.058,6.058,0,0,1-.168,4.051,13.086,13.086,0,0,1-.936,1.757c-.554.945-.865,2.027-1.358,3.006.552,1.869.428,3.864.729,5.793a26.633,26.633,0,0,0,1.526,5.22,8.459,8.459,0,0,0,2.022,3.531,1.842,1.842,0,0,0,1.251.544,2.187,2.187,0,0,0,.972-.369,3.807,3.807,0,0,0,.824-.605,2.131,2.131,0,0,0,.243-.323,1.261,1.261,0,0,0,.182.457c.593-1.278,1.244-2.527,1.944-3.749a3.214,3.214,0,0,0,.583-.4.523.523,0,0,0,.034.131c-.032.117-.061.243-.092.352s-.068.226-.1.335-.051.163-.078.243-.066.194-.1.292-.078.211-.119.316-.056.151-.087.224c-.075.185-.153.365-.243.544a1.706,1.706,0,0,0,.209.085l.046.015a1.7,1.7,0,0,0,.192.049h.07a1.352,1.352,0,0,0,.143.015h.211a2.08,2.08,0,0,0,.513-.087l.095.389a13.886,13.886,0,0,1,.467,2.673,20.735,20.735,0,0,0,.066,3.062c.1.522.3,1.023.374,1.548a6.6,6.6,0,0,1-.027,1.485l-.34,3.579a3.061,3.061,0,0,1-.306,1.264c-.168.292-.44.625-.27.914a6.076,6.076,0,0,1,.853-.163c-.1.379-.2.761-.289,1.145a2.017,2.017,0,0,0-.068.882,5.919,5.919,0,0,1,.262.809,2.727,2.727,0,0,1-.428,1.23,4.2,4.2,0,0,0,.486,3.227l1.341,3.042,1.1,2.5c.326.729.654,1.482.972,2.231a72.417,72.417,0,0,1,3.5,10.507,1.254,1.254,0,0,0,.182.457c.185.243.522.321.8.471a1.491,1.491,0,0,1,.165,2.374c.153,1.827-1.215,3.594-1.92,5.285-1.623,3.888-1.329,8.277-1.886,12.456l.629-.367a.78.78,0,0,1,.2.134q-.022.117-.051.243a3.807,3.807,0,0,1-.4,1.013,5.384,5.384,0,0,0-1.013,1.915,11.963,11.963,0,0,0,.08,1.315v.121c-.056-.053-.141-.049-.267.051a1.567,1.567,0,0,0-.4.746c-.109.313-.2.632-.284.95l-.326,1.123a13.053,13.053,0,0,1-.659,1.981,8.481,8.481,0,0,0-.583,1.341,4.162,4.162,0,0,0-.1,1.152,3.453,3.453,0,0,0,.158,1.094,2.717,2.717,0,0,0,1.592,1.509,7.47,7.47,0,0,0,2.211.418,1.858,1.858,0,0,0,.581-.017,1.578,1.578,0,0,0,.561-.294,4.682,4.682,0,0,0,1.648-3.4,5.025,5.025,0,0,0-.139-.773c.063-1.383-.139-2.773-.034-4.15.022.158.044.313.068.469l.243,1.548a.324.324,0,0,0-.083-.146,3.558,3.558,0,0,0-.092,1.771,10.569,10.569,0,0,0,.51,1.718l.33.923a1.654,1.654,0,0,0,1.545,1.3,12.7,12.7,0,0,0,2.79.486.632.632,0,0,0,.367-.068,1.771,1.771,0,0,0,.165-.139,1.638,1.638,0,0,1,.267-.155,1.764,1.764,0,0,0,.855-1.013,1.6,1.6,0,0,0-.158-1.31,3.056,3.056,0,0,0-.377-.457l-1.662-1.762a10.479,10.479,0,0,0-.812-.86.3.3,0,0,0-.267-.087,8.572,8.572,0,0,1-.316-3.681c.024-.369.226-1.135.306-1.764a2.846,2.846,0,0,0,.882-.486,1.331,1.331,0,0,0,.508-.758,127.09,127.09,0,0,1,3.46-12.6c.126-.411.243-.824.372-1.234.053-.175.1-.352.153-.53s.085-.287.126-.43c.068-.243.136-.486.2-.729.019-.066.036-.131.056-.2a.227.227,0,0,1,0-.039c.08-.3.158-.6.243-.9.029-.117.061-.228.09-.345.095-.379.19-.763.279-1.145a1.258,1.258,0,0,0,.034-.16.678.678,0,0,0-.027-.406h0a.527.527,0,0,0-.095-.136c-.027-.032-.056-.063-.085-.092a1.333,1.333,0,0,1-.092-.1.94.94,0,0,1-.17-.318v-.35c0-.107-.015-.243-.022-.369a3.894,3.894,0,0,1,.109-.486c.029-.095.061-.19.09-.284s.073-.243.112-.352a.892.892,0,0,0,.221-.6q.226-.564.5-1.106a3.335,3.335,0,0,0,.445-1.2,4.743,4.743,0,0,0-.141-1.135c-.243-1.579.486-3.118,1.023-4.617a20.479,20.479,0,0,0,.9-3.4,7.229,7.229,0,0,1,.741-2.586,3.849,3.849,0,0,0,.4-.69,2.717,2.717,0,0,0,.107-.782,8.633,8.633,0,0,1,.765-3.1,1.969,1.969,0,0,0,.2-.605.222.222,0,0,0,0-.041v-.058l.124-.019a16.449,16.449,0,0,0,.279-4.18,6.374,6.374,0,0,0-2.136-4.034h.024a1.333,1.333,0,0,0,.612-1.186,2.311,2.311,0,0,0-.86-1.806.863.863,0,0,1-.292-.3.916.916,0,0,1-.036-.391,2,2,0,0,0-1.232-1.857.465.465,0,0,1-.2-.117.486.486,0,0,1-.053-.355,2.17,2.17,0,0,0-1.047-1.983,3.422,3.422,0,0,0,.046-1.575,1.158,1.158,0,0,0-1.152-.9c.428-1.166-.18-2.464-.019-3.7.07-.53.282-1.038.309-1.57a3.212,3.212,0,0,1,.141-1.429c.236-.423.792-.753.649-1.215-.061-.2-.243-.333-.328-.525s.255-.486.43-.379c.083-.063.165-.129.243-.2a3.915,3.915,0,0,0,.146.729c.119.4.3.773.425,1.169a9.507,9.507,0,0,0,.549,1.815c.486.887,1.514,1.327,2.209,2.063.408.43.7.972,1.123,1.38a6.12,6.12,0,0,0,1.045.785l2.245,1.458a2.58,2.58,0,0,0,.768.382,1.31,1.31,0,0,0,1.543-1.111,1.517,1.517,0,0,1-.552-.343.215.215,0,0,0,.095-.015,3.54,3.54,0,0,0,1.441-.765,19.4,19.4,0,0,0,3.871-4.719c1.176-1.791,6.836-6.529,6.836-6.529v-1.92a6.91,6.91,0,0,0,1.886-1.606,2.082,2.082,0,0,0,.474-1.215A1.081,1.081,0,0,0,175.76,355.6Zm-47.069,4.6q-.163,1.047-.4,2.08a19.768,19.768,0,0,1-.671,2.35l-.087.243c-.08-.151-.16-.3-.243-.452-.182-.382-.33-.778-.486-1.174l-.938-2.527a1.183,1.183,0,0,1-.061-1.008,1.127,1.127,0,0,1,.535-.4,10.565,10.565,0,0,1,2.056-.7,5.621,5.621,0,0,0,.661-.175A9.964,9.964,0,0,0,128.69,360.2Zm1.038-3.159a.377.377,0,0,1,0-.367.836.836,0,0,1,.243-.17l.07-.049c-.1.2-.207.4-.313.593Zm1.944-2.748a5.084,5.084,0,0,0-.748.768,8.021,8.021,0,0,0-.642.991.729.729,0,0,0-.267-.729,1.549,1.549,0,0,1-.243-.165.51.51,0,0,1,.1-.714,1.482,1.482,0,0,1,.756-.258l1.12-.165c-.034.095-.056.187-.08.279Zm10.488,81.32a4.067,4.067,0,0,0-.066-1h.413C142.393,434.936,142.277,435.279,142.16,435.617Z" transform="translate(-100.851 -270.283)" fill="url(#linear-gradient-12)"/>
    <path id="Path_4922" data-name="Path 4922" d="M161.48,338.867c-1.944.313-4.107,1.062-4.86,2.884-.561,1.378-.126,2.928.017,4.408a3.4,3.4,0,0,1-.041,1.174,4.113,4.113,0,0,1-1.03,1.614,8.556,8.556,0,0,0-1.48,2.075,3.016,3.016,0,0,0-.1,2.479,1.786,1.786,0,0,1,.243.654c.024.505-.505.826-.894,1.149-1.458,1.215-1.4,3.4-1.409,5.3a26.9,26.9,0,0,1-2.525,11.224,3.429,3.429,0,0,0,3.832-.5,12.77,12.77,0,0,1-.87,2.508c1.234.6,2.724-.384,3.344-1.609a29.084,29.084,0,0,0,1.132-3.949c.44-1.3,1.215-2.43,1.558-3.74a3.479,3.479,0,0,1,.442-1.254,3.3,3.3,0,0,1,.778-.663,7.589,7.589,0,0,0,2.748-3.725,15.13,15.13,0,0,0,4.6.527,5.108,5.108,0,0,0,3.929-2.155c.36-.581.554-1.249.887-1.847.408-.729,1.008-1.332,1.458-2.029a7.5,7.5,0,0,0,.843-5.725,13.661,13.661,0,0,0-2.673-5.251A10.321,10.321,0,0,0,161.48,338.867Z" transform="translate(-121.313 -272.546)" fill="#303d5c"/>
    <path id="Path_4923" data-name="Path 4923" d="M144.62,429.411c-.109.7-.243,1.39-.4,2.078a20.332,20.332,0,0,1-.671,2.347,2.24,2.24,0,0,0-.211,1.079,1.961,1.961,0,0,0,.26.642c.887,1.577,2.087,3.1,2.187,4.909a2.623,2.623,0,0,0,.243,1.31q1.028-2.214,2.27-4.316a13.22,13.22,0,0,0,2.075-4.636,8.687,8.687,0,0,0-.032-2.381,5.164,5.164,0,0,0-.853-2.505c-.588-.768-2.187-1.927-3.239-1.686C145.029,426.529,144.776,428.422,144.62,429.411Z" transform="translate(-116.723 -338.786)" fill="#30b847"/>
    <path id="Path_4924" data-name="Path 4924" d="M277.355,420.086a10.462,10.462,0,0,0,3.268-1.827,10.691,10.691,0,0,0,1.487-1.844l2.734-3.944a7.206,7.206,0,0,0,1.458-3.052,10.051,10.051,0,0,0,2.729-6.206c.019-.231.1-.535.328-.542a.406.406,0,0,1,.267.129,1.538,1.538,0,0,1,.486,1.31,1.807,1.807,0,0,1,1.157.2c.326.233.413.812.063,1a.5.5,0,0,1,.348.566,1.823,1.823,0,0,1,1.247.058c.369.209.51.821.153,1.05a1.084,1.084,0,0,1,.693,1.038,2.061,2.061,0,0,1-.474,1.215c-1.05,1.409-2.9,1.978-4.119,3.247a9.809,9.809,0,0,0-1.072,1.431l-3.526,5.365A19.344,19.344,0,0,1,280.713,424a3.54,3.54,0,0,1-1.441.765,1.587,1.587,0,0,1-1.514-.42,2.459,2.459,0,0,1-.44-1.509C277.26,421.93,277.416,421,277.355,420.086Z" transform="translate(-218.137 -320.96)" fill="#ee8e9e"/>
    <path id="Path_4925" data-name="Path 4925" d="M209.1,771.477a2.945,2.945,0,0,1,.377.457,1.594,1.594,0,0,1,.158,1.307,1.747,1.747,0,0,1-.853,1.011,1.555,1.555,0,0,0-.27.156,1.534,1.534,0,0,1-.165.141.673.673,0,0,1-.367.068,12.964,12.964,0,0,1-2.787-.486,2.246,2.246,0,0,1-1.152-.539,2.2,2.2,0,0,1-.394-.766l-.33-.921a10.677,10.677,0,0,1-.508-1.716,3.518,3.518,0,0,1,.092-1.769.557.557,0,0,1,.122.362,3.961,3.961,0,0,0,.71,1.716,1.745,1.745,0,0,0,.277.347,1.764,1.764,0,0,0,.829.347,10.275,10.275,0,0,0,1.764.226.485.485,0,0,0,.243-.029.435.435,0,0,0,.2-.243,1.074,1.074,0,0,0,0-.729c-.16-.45-.6-.744-.809-1.171-.158-.316.058-.663.379-.4a10.1,10.1,0,0,1,.814.86Z" transform="translate(-161.687 -597.833)" fill="#ff9f00"/>
    <path id="Path_4926" data-name="Path 4926" d="M205.649,744.28a7.048,7.048,0,0,0,.651,4.335c.294.447.685.824,1.018,1.244a1.482,1.482,0,0,1,.365.751,1.16,1.16,0,0,1-1,1.113,3.234,3.234,0,0,1-1.606-.243,3.868,3.868,0,0,1-1.363-.642,3.93,3.93,0,0,1-1.035-2.508l-.33-2.124a5.079,5.079,0,0,1,.3-3.208l.544-1.594a.729.729,0,0,1,.243-.4.676.676,0,0,1,.416-.078c.52.027,1.835.216,2.087.768C206.152,742.178,205.685,743.709,205.649,744.28Z" transform="translate(-161.293 -577.02)" fill="#ee8e9e"/>
    <path id="Path_4927" data-name="Path 4927" d="M205.649,744.28a7.048,7.048,0,0,0,.651,4.335c.294.447.685.824,1.018,1.244a1.482,1.482,0,0,1,.365.751,1.16,1.16,0,0,1-1,1.113,3.234,3.234,0,0,1-1.606-.243,3.868,3.868,0,0,1-1.363-.642,3.93,3.93,0,0,1-1.035-2.508l-.33-2.124a5.079,5.079,0,0,1,.3-3.208l.544-1.594a.729.729,0,0,1,.243-.4.676.676,0,0,1,.416-.078c.52.027,1.835.216,2.087.768C206.152,742.178,205.685,743.709,205.649,744.28Z" transform="translate(-161.293 -577.02)" opacity="0.05"/>
    <path id="Path_4928" data-name="Path 4928" d="M219.387,562.131a.267.267,0,0,1,0,.041,1.82,1.82,0,0,1-.2.6,8.631,8.631,0,0,0-.768,3.1,2.716,2.716,0,0,1-.107.782,3.889,3.889,0,0,1-.4.688,7.259,7.259,0,0,0-.741,2.583,20.414,20.414,0,0,1-.9,3.387c-.542,1.5-1.271,3.037-1.023,4.617a4.743,4.743,0,0,1,.141,1.135,3.3,3.3,0,0,1-.445,1.193,11.378,11.378,0,0,0-.486,1.106c-.158.4-.3.816-.423,1.234a1.676,1.676,0,0,0,.092,1.519,1.853,1.853,0,0,1,.275.333.892.892,0,0,1,0,.574q-.289,1.215-.617,2.43c-.17.632-.35,1.259-.535,1.886-1.366,4.585-2.916,9.125-3.83,13.822-.131.675-1,1.159-1.669,1.307a2.187,2.187,0,0,1-1.92-.513c-.046-.041-.09-.087-.131-.131a4.035,4.035,0,0,1-.756-2.972c.243-4.833,2.673-9.258,3.83-13.955a27,27,0,0,0,.753-5.181c.27-5.832.379-12-1.271-17.605-.343-1.166-.748-2.483-.131-3.528a3.512,3.512,0,0,1,1.825-1.334,11.739,11.739,0,0,1,9.1.243,2.833,2.833,0,0,1-.015.35,3.587,3.587,0,0,0,.185,1.609A2.044,2.044,0,0,1,219.387,562.131Z" transform="translate(-163.35 -438.88)" fill="#ff9f00"/>
    <path id="Path_4929" data-name="Path 4929" d="M177.049,755.365l-.309,1.123a12.723,12.723,0,0,1-.656,1.976,8.486,8.486,0,0,0-.583,1.341,4.162,4.162,0,0,0-.1,1.152,3.439,3.439,0,0,0,.158,1.091,2.709,2.709,0,0,0,1.589,1.507,7.407,7.407,0,0,0,2.211.416,1.789,1.789,0,0,0,.581-.015,1.578,1.578,0,0,0,.561-.294,4.671,4.671,0,0,0,1.645-3.4,4.179,4.179,0,0,0-.173-.87c-.08-.107-.855.33-.522.7.486.539-.945.26-1.674.214a6.286,6.286,0,0,1-.95-.156l-1.181-.243c-.386-.083-.831-.216-.972-.586s.16-.812.394-1.171a7.662,7.662,0,0,0,.921-3.251c.027-.221.3-1.657-.267-1.215a1.611,1.611,0,0,0-.4.746C177.222,754.728,177.134,755.046,177.049,755.365Z" transform="translate(-140.992 -586.61)" fill="#ff9f00"/>
    <path id="Path_4930" data-name="Path 4930" d="M214.069,652.712a1.654,1.654,0,0,1-.09-1.519c.053-.19.114-.377.177-.564l-4.636-1.57c-.017.418-.036.831-.056,1.244a26.855,26.855,0,0,1-.751,5.183c-1.159,4.695-3.592,9.12-3.83,13.951a3.851,3.851,0,0,0,.887,3.106,2.187,2.187,0,0,0,1.917.515c.673-.148,1.538-.634,1.672-1.31.919-4.7,2.462-9.234,3.83-13.824q.639-2.136,1.152-4.306a.885.885,0,0,0,0-.571,1.7,1.7,0,0,0-.272-.335Z" transform="translate(-163.305 -507.477)" opacity="0.05"/>
    <path id="Path_4931" data-name="Path 4931" d="M181.247,733.862a5.4,5.4,0,0,0-1.011,1.915,11.953,11.953,0,0,0,.08,1.312,4.264,4.264,0,0,1-.192,1.072q-.678,2.447-1.56,4.826a1.324,1.324,0,0,0-.124.656c.058.372.42.617.765.766a8.164,8.164,0,0,0,3.55.391,1.864,1.864,0,0,0,1-.243,1.73,1.73,0,0,0,.564-1.395c.083-1.507-.173-3.021,0-4.517.061-.547.175-1.084.26-1.626a4.732,4.732,0,0,0-.068-2.267,5.2,5.2,0,0,0-.85-1.426,4.485,4.485,0,0,0-1.179-1.176c-.141-.083-.542-.34-.685-.18-.073.083-.041.3-.051.406a4.25,4.25,0,0,1-.083.467,3.846,3.846,0,0,1-.416,1.021Z" transform="translate(-143.294 -570.201)" fill="#ee8e9e"/>
    <path id="Path_4932" data-name="Path 4932" d="M210.158,563.974a1.275,1.275,0,0,0-.085,1.057c.153.642.411,1.256.62,1.881a26.172,26.172,0,0,1,.8,3.421,10.1,10.1,0,0,1,.44,3.261,23.234,23.234,0,0,1,2.462,7.73c.095.693-1.443,1.587-1.414,2.284.058,1.39,1.166,1.5.35,2.61-.041.056.306,1.3.26,1.351-.333.4-.756.729-1.113,1.1a8.427,8.427,0,0,0-1.174,1.718c-2.114,3.82-5.171,8.15-4.228,12.415a.756.756,0,0,1-.4.765,2.089,2.089,0,0,1-.894.207h-.146a4.035,4.035,0,0,1-.756-2.972c.243-4.833,2.673-9.258,3.83-13.956a27,27,0,0,0,.753-5.181c.27-5.832.379-12-1.271-17.605-.343-1.166-.748-2.483-.131-3.528a3.512,3.512,0,0,1,1.825-1.334,11.739,11.739,0,0,1,9.1.243,2.827,2.827,0,0,1-.015.35,3.587,3.587,0,0,0,.185,1.609,2.044,2.044,0,0,1,.182.7s.083-.94.08-.926c-1.883.27-3.871,1.5-5.771,1.781a13.473,13.473,0,0,0-2.894.637A1.3,1.3,0,0,0,210.158,563.974Z" transform="translate(-163.297 -438.842)" opacity="0.05"/>
    <path id="Path_4933" data-name="Path 4933" d="M169.315,533.356q-.382,1.215-.673,2.454a2.053,2.053,0,0,0-.068.882,5.886,5.886,0,0,1,.262.807,2.728,2.728,0,0,1-.428,1.23,4.2,4.2,0,0,0,.486,3.222l1.341,3.038,1.1,2.493q.492,1.112.972,2.228a72.251,72.251,0,0,1,3.5,10.5,1.293,1.293,0,0,0,.18.457c.187.243.525.321.8.471a1.485,1.485,0,0,1,.165,2.372c.156,1.825-1.215,3.587-1.917,5.278-1.623,3.888-1.329,8.262-1.886,12.442l.629-.369c.605.277.583,1.135.909,1.716.486.872,1.682.994,2.673.928a2.07,2.07,0,0,0,.892-.207.753.753,0,0,0,.4-.765c-.94-4.265,2.114-8.595,4.231-12.415a8.418,8.418,0,0,1,1.171-1.718c.36-.379.78-.7,1.115-1.1a6.008,6.008,0,0,0,.989-4.158,23.275,23.275,0,0,0-2.649-9.82,10.024,10.024,0,0,0-.437-3.259,25.587,25.587,0,0,0-.8-3.419c-.209-.629-.464-1.242-.62-1.883a1.285,1.285,0,0,1,.085-1.057,1.31,1.31,0,0,1,.6-.386,13.473,13.473,0,0,1,2.894-.637l6.52-.936a16.546,16.546,0,0,0,.277-4.177,6.422,6.422,0,0,0-4.6-5.373.986.986,0,0,0-.851.056,33.923,33.923,0,0,0-17.263,1.106Z" transform="translate(-135.573 -418.572)" fill="#ff9f00"/>
    <path id="Path_4934" data-name="Path 4934" d="M182.436,384.05a3.2,3.2,0,0,1-.284,1.866,2.931,2.931,0,0,1-.729.819,5.589,5.589,0,0,1-2.148,1.067,2.325,2.325,0,0,0-1.285.561c-.457.552-.151,1.388.243,1.99a5.155,5.155,0,0,0,2.816,2.328c.972.262,1.985.1,2.967.272.712.124,1.383.418,2.085.586a6.158,6.158,0,0,0,5.655-1.577,8.114,8.114,0,0,1-2.673-2.855,4.051,4.051,0,0,1-.2-2.731c.243-.889.814-1.754.639-2.673a2.751,2.751,0,0,0-1.944-1.839,12.682,12.682,0,0,0-2.464-.488c-.459-.063-3.375-.707-3.558-.389-.1.18.5,1.244.578,1.48A5.627,5.627,0,0,1,182.436,384.05Z" transform="translate(-142.782 -304.479)" fill="#ee8e9e"/>
    <circle id="Ellipse_401" data-name="Ellipse 401" cx="5.915" cy="5.915" r="5.915" transform="translate(37.416 69.871)" fill="#ee8e9e"/>
    <path id="Path_4935" data-name="Path 4935" d="M162.313,412.355l4.012.676a15.008,15.008,0,0,0,3,.3,8.346,8.346,0,0,1,1.652,0c.379.063.741.207,1.12.255.469.058.945-.032,1.414.029a4.514,4.514,0,0,1,2.248,1.29,3.929,3.929,0,0,1,1.669,2.491.756.756,0,0,1-.049.345,1.013,1.013,0,0,1-.3.311,9.776,9.776,0,0,0-1.674,2.3,8.878,8.878,0,0,1-1.993,2.151c-.175-.112-.508.182-.433.377s.267.328.33.525c.143.454-.418.79-.651,1.215a3.244,3.244,0,0,0-.139,1.426c-.029.532-.243,1.04-.309,1.567-.163,1.232.447,2.53.017,3.694a1.164,1.164,0,0,1,1.152.9,3.39,3.39,0,0,1-.046,1.575,2.165,2.165,0,0,1,1.05,1.978.34.34,0,0,0,.243.471,2,2,0,0,1,1.232,1.854.928.928,0,0,0,.036.394.87.87,0,0,0,.289.3,2.3,2.3,0,0,1,.86,1.8,1.3,1.3,0,0,1-.61,1.183,10.81,10.81,0,0,1-2.695.8,23.721,23.721,0,0,1-2.607.464,24.021,24.021,0,0,1-2.43.075l-5.365-.022c-1.509,0-3.018,0-4.522-.114a12.746,12.746,0,0,0-4.2.1c-.17-.289.1-.622.27-.911a3.033,3.033,0,0,0,.306-1.264l.34-3.575a6.577,6.577,0,0,0,.027-1.482c-.073-.527-.272-1.025-.374-1.548a21,21,0,0,1-.063-3.057,14,14,0,0,0-.469-2.673l-1.064-4.374a17.268,17.268,0,0,0-.522-2.187q-1.227-3.159-2.573-6.25a.663.663,0,0,1,.049-.554l.887-1.589a10.057,10.057,0,0,1,.812-1.3,5.1,5.1,0,0,1,2.994-1.837,5.278,5.278,0,0,1,3.482.515c.413.221.8.486,1.215.7A5.182,5.182,0,0,0,162.313,412.355Z" transform="translate(-122.107 -326.794)" fill="#30b847"/>
    <path id="Path_4936" data-name="Path 4936" d="M248.766,434.55l1.4,1.864a2.593,2.593,0,0,1,.326.515,8.409,8.409,0,0,1,.207,1.582,3.334,3.334,0,0,0,.411.945,21.268,21.268,0,0,0,1.776,2.641,4.575,4.575,0,0,0,1.106,1.091,1.817,1.817,0,0,0,1.487.265.916.916,0,0,0-.486.442,5.416,5.416,0,0,0-.345,3.46,3.5,3.5,0,0,0,.389,1.132,1.681,1.681,0,0,0,.889.77,1.307,1.307,0,0,1-1.543,1.108,2.51,2.51,0,0,1-.765-.382l-2.245-1.458a6.247,6.247,0,0,1-1.045-.785c-.42-.418-.712-.948-1.12-1.378-.695-.729-1.716-1.176-2.206-2.061a9.476,9.476,0,0,1-.552-1.813c-.124-.4-.306-.77-.425-1.169a5.228,5.228,0,0,1,.459-3.732A15.166,15.166,0,0,1,248.766,434.55Z" transform="translate(-194.325 -345.093)" fill="#30b847"/>
    <path id="Path_4937" data-name="Path 4937" d="M170.488,345.38a7.839,7.839,0,0,0-2.08-2.165,7.131,7.131,0,0,0-3.754-1.587,4.063,4.063,0,0,0-1.689.275c-.027-1.669-.44-2.782-1.485-2.615-1.944.313-4.107,1.062-4.86,2.884-.561,1.378-.126,2.928.017,4.408a3.4,3.4,0,0,1-.041,1.174,4.113,4.113,0,0,1-1.03,1.613,8.557,8.557,0,0,0-1.48,2.075,3.016,3.016,0,0,0-.1,2.479,1.786,1.786,0,0,1,.243.654c.024.505-.505.826-.894,1.149-1.458,1.215-1.4,3.4-1.409,5.3a26.9,26.9,0,0,1-2.525,11.224,3.429,3.429,0,0,0,3.832-.5,12.771,12.771,0,0,1-.87,2.508c1.234.6,2.724-.384,3.344-1.609a29.085,29.085,0,0,0,1.132-3.949c.44-1.3,1.215-2.43,1.558-3.74a3.48,3.48,0,0,1,.442-1.254,3.3,3.3,0,0,1,.778-.663c1.273-.914-.6-7.837-.1-9.324.729.163,2.1-3.4,2.877-7.047a3.669,3.669,0,0,0,1.684.168,2.086,2.086,0,0,1,.6-.041,1.545,1.545,0,0,1,.525.214,13.286,13.286,0,0,0,1.793.921,10,10,0,0,0,4.061.348A4.046,4.046,0,0,0,170.488,345.38Z" transform="translate(-121.313 -272.968)" fill="#303d5c"/>
    <g id="Group_8720" data-name="Group 8720" transform="translate(28.087 66.314)" opacity="0.1">
      <path id="Path_4938" data-name="Path 4938" d="M150.095,372.285a26.83,26.83,0,0,0,2.537-11.214c.012-1.9-.051-4.1,1.409-5.3.389-.323.919-.644.894-1.149a1.825,1.825,0,0,0-.243-.654,3.055,3.055,0,0,1,.1-2.479,8.505,8.505,0,0,1,1.482-2.075A4.124,4.124,0,0,0,157.3,347.8a3.456,3.456,0,0,0,.044-1.174c-.146-1.48-.578-3.03-.017-4.408.729-1.764,2.768-2.52,4.663-2.85a1.067,1.067,0,0,0-.51-.034c-1.944.313-4.107,1.062-4.86,2.884-.561,1.378-.126,2.928.017,4.408a3.4,3.4,0,0,1-.041,1.174,4.113,4.113,0,0,1-1.03,1.614,8.556,8.556,0,0,0-1.48,2.075,3.016,3.016,0,0,0-.1,2.479,1.786,1.786,0,0,1,.243.654c.024.505-.505.826-.894,1.149-1.458,1.215-1.4,3.4-1.409,5.3a26.9,26.9,0,0,1-2.525,11.214,3.324,3.324,0,0,0,1.878.352A3.207,3.207,0,0,1,150.095,372.285Z" transform="translate(-149.4 -339.313)"/>
      <path id="Path_4939" data-name="Path 4939" d="M162.247,475.408a12.768,12.768,0,0,0,.863-2.508,3.241,3.241,0,0,1-.841.556,12.714,12.714,0,0,1-.729,1.944,1.847,1.847,0,0,0,1.142.146,1.815,1.815,0,0,1-.435-.139Z" transform="translate(-158.59 -440.438)"/>
      <path id="Path_4940" data-name="Path 4940" d="M208.065,349.266a4.076,4.076,0,0,1,1.128-.262h-.134a3.958,3.958,0,0,0-1,.075C208.062,349.132,208.065,349.2,208.065,349.266Z" transform="translate(-193.806 -346.645)"/>
      <path id="Path_4941" data-name="Path 4941" d="M215.717,371.342a13.26,13.26,0,0,1-1.791-.921,1.555,1.555,0,0,0-.527-.214,1.82,1.82,0,0,0-.549.034,2.247,2.247,0,0,1,.379.18,13.285,13.285,0,0,0,1.793.921,8.018,8.018,0,0,0,3,.389,7.032,7.032,0,0,1-2.3-.389Z" transform="translate(-197.432 -362.694)"/>
      <path id="Path_4942" data-name="Path 4942" d="M205.6,369.71a.756.756,0,0,1-.034.16,3.675,3.675,0,0,0,.88.024A3.889,3.889,0,0,1,205.6,369.71Z" transform="translate(-191.921 -362.323)"/>
    </g>
    <path id="Path_4943" data-name="Path 4943" d="M130.463,416.355a2.172,2.172,0,0,1-.583,1.728,3.828,3.828,0,0,1-.824.605,2.187,2.187,0,0,1-.972.367,1.849,1.849,0,0,1-1.249-.542,8.348,8.348,0,0,1-2.022-3.528,26.541,26.541,0,0,1-1.526-5.215c-.289-1.925-.165-3.917-.717-5.786.486-.972.8-2.056,1.358-3a13.964,13.964,0,0,0,.936-1.754,6.075,6.075,0,0,0,.165-4.048.549.549,0,0,1,.646.034,1.339,1.339,0,0,1,.389.566,5.02,5.02,0,0,1,.389,2.379.923.923,0,0,0,.066.581.729.729,0,0,0,.632.267,5.7,5.7,0,0,0,1.458-.265,13.546,13.546,0,0,1,4.5-.372,2.17,2.17,0,0,1,.877.214.817.817,0,0,1,.452.729l-3.6.527a1.482,1.482,0,0,0-.756.258.51.51,0,0,0-.1.712,1.67,1.67,0,0,0,.243.165.729.729,0,0,1-.029,1.183.836.836,0,0,0-.243.17c-.146.2.049.457.112.695a.877.877,0,0,1-.433.9,3.005,3.005,0,0,1-1,.338,10.766,10.766,0,0,0-2.053.7,1.128,1.128,0,0,0-.535.4,1.2,1.2,0,0,0,.061,1.008l.938,2.522a11.16,11.16,0,0,0,.486,1.174c.243.486.532.957.778,1.458a15.182,15.182,0,0,1,.586,1.412C129.357,414.219,130.3,415,130.463,416.355Z" transform="translate(-101.003 -315.225)" fill="#ee8e9e"/>
    <rect id="Rectangle_3262" data-name="Rectangle 3262" width="11.21" height="10.852" transform="translate(61.913 84.767)" fill="url(#linear-gradient)"/>
    <rect id="Rectangle_3263" data-name="Rectangle 3263" width="10.823" height="10.478" transform="translate(62.107 84.954)" fill="#fff"/>
    <path id="Path_4944" data-name="Path 4944" d="M324.907,410.69a1.118,1.118,0,0,0-.411.6.243.243,0,0,0,.095.272.272.272,0,0,0,.165,0,1.543,1.543,0,0,0,.729-.343.729.729,0,0,0-.216.175.243.243,0,0,0-.029.262.343.343,0,0,0,.243.124,2.326,2.326,0,0,0,1.042-.049,1.431,1.431,0,0,0-.433.255.581.581,0,0,0-.2.45.224.224,0,0,0,.078.168.279.279,0,0,0,.117.041,2.81,2.81,0,0,0,.972,0,.5.5,0,0,0,.408-.243.612.612,0,0,0-.095-.469,2.622,2.622,0,0,1-.243-1.186.466.466,0,0,0-.034-.243.432.432,0,0,0-.216-.158,1.876,1.876,0,0,0-1.191-.243A2.506,2.506,0,0,0,324.907,410.69Z" transform="translate(-253.853 -326.562)" fill="#ee8e9e"/>
  </g>
</svg>
